<?xml version="1.0" encoding="UTF-8"?><svg id="Layer_1" xmlns="http://www.w3.org/2000/svg" xmlns:xlink="http://www.w3.org/1999/xlink" viewBox="0 0 237.6 420.9"><defs><style>.cls-1,.cls-2,.cls-3,.cls-4,.cls-5,.cls-6,.cls-7,.cls-8,.cls-9,.cls-10{fill:none;}.cls-2{stroke:#4b68b1;stroke-width:2.13px;}.cls-2,.cls-11,.cls-3,.cls-4,.cls-5,.cls-6,.cls-7,.cls-8,.cls-9,.cls-10,.cls-12,.cls-13{stroke-linejoin:round;}.cls-11,.cls-9{stroke:#000;}.cls-11,.cls-12,.cls-13{stroke-linecap:round;}.cls-11,.cls-13{stroke-width:.71px;}.cls-14{clip-path:url(#clippath);}.cls-15,.cls-12{fill:#fff;}.cls-3{stroke:#212121;}.cls-3,.cls-4,.cls-5,.cls-6,.cls-7,.cls-8,.cls-9,.cls-10,.cls-12{stroke-width:1.07px;}.cls-4{stroke:#d27528;}.cls-5{stroke:#b12024;}.cls-6{stroke:#323232;}.cls-7{stroke:#016698;}.cls-8{stroke:#6bb244;}.cls-10{stroke:#ba529f;}.cls-16{clip-path:url(#clippath-1);}.cls-17{clip-path:url(#clippath-4);}.cls-18{clip-path:url(#clippath-3);}.cls-19{clip-path:url(#clippath-2);}.cls-20{clip-path:url(#clippath-5);}.cls-21{font-family:Helvetica-Bold, Helvetica;font-size:8px;}.cls-12{stroke:#fff;}.cls-13{fill:#dd2326;stroke:#dd2326;}</style><clipPath id="clippath"><rect class="cls-1" x="31.77" y="147.75" width="178.4" height="108.09"/></clipPath><clipPath id="clippath-1"><rect class="cls-1" x="31.77" y="147.75" width="178.4" height="108.09"/></clipPath><clipPath id="clippath-2"><rect class="cls-1" x="41.11" y="5.75" width="188.69" height="108.09"/></clipPath><clipPath id="clippath-3"><rect class="cls-1" x="41.11" y="5.75" width="188.69" height="108.09"/></clipPath><clipPath id="clippath-4"><rect class="cls-1" x="35.3" y="284.65" width="132" height="108.09"/></clipPath><clipPath id="clippath-5"><rect class="cls-1" x="1.3" y="279.17" width="235.28" height="141.73"/></clipPath></defs><g><rect class="cls-15" y="142.27" width="235.28" height="141.73"/><rect class="cls-12" y="142.27" width="235.28" height="141.73"/><g class="cls-14"><rect class="cls-15" x="31.77" y="147.75" width="178.4" height="108.09"/></g><polygon class="cls-13" points="39.88 169.47 42.52 174.03 37.25 174.03 39.88 169.47"/><polygon class="cls-13" points="69.08 200.1 71.71 204.66 66.44 204.66 69.08 200.1"/><polygon class="cls-13" points="88.54 216.03 91.17 220.59 85.91 220.59 88.54 216.03"/><polygon class="cls-13" points="101.51 227.06 104.14 231.62 98.88 231.62 101.51 227.06"/><polygon class="cls-13" points="150.17 241.76 152.8 246.32 147.53 246.32 150.17 241.76"/><polygon class="cls-13" points="198.82 247.89 201.45 252.45 196.19 252.45 198.82 247.89"/><path class="cls-11" d="M41.91,242.96c0-1.08-.87-1.95-1.95-1.95s-1.95,.87-1.95,1.95,.87,1.95,1.95,1.95,1.95-.87,1.95-1.95"/><path class="cls-11" d="M70.95,235.28c0-1.08-.87-1.95-1.95-1.95s-1.95,.87-1.95,1.95,.87,1.95,1.95,1.95,1.95-.87,1.95-1.95"/><path class="cls-11" d="M90.51,224.12c0-1.08-.87-1.95-1.95-1.95s-1.95,.87-1.95,1.95,.87,1.95,1.95,1.95,1.95-.87,1.95-1.95"/><path class="cls-11" d="M103.47,214.52c0-1.08-.87-1.95-1.95-1.95s-1.95,.87-1.95,1.95,.87,1.95,1.95,1.95,1.95-.87,1.95-1.95"/><path class="cls-11" d="M152.07,193.4c0-1.08-.87-1.95-1.95-1.95s-1.95,.87-1.95,1.95,.87,1.95,1.95,1.95,1.95-.87,1.95-1.95"/><g class="cls-16"><path class="cls-11" d="M200.79,152.6c0-1.08-.87-1.95-1.95-1.95s-1.95,.87-1.95,1.95,.87,1.95,1.95,1.95,1.95-.87,1.95-1.95"/><polyline class="cls-2" points="39.88 249.24 41.9 248.09 43.91 246.95 45.92 245.81 47.93 244.66 49.94 243.52 51.95 242.37 53.97 241.23 55.98 240.09 57.99 238.94 60 237.8 62.01 236.66 64.03 235.51 66.04 234.37 68.05 233.22 70.06 232.08 72.07 230.94 74.09 229.79 76.1 228.65 78.11 227.5 80.12 226.36 82.13 225.22 84.14 224.07 86.16 222.93 88.17 221.78 90.18 220.64 92.19 219.5 94.2 218.35 96.22 217.21 98.23 216.07 100.24 214.92 102.25 213.78 104.26 212.63 106.27 211.49 108.29 210.35 110.3 209.2 112.31 208.06 114.32 206.91 116.33 205.77 118.35 204.63 120.36 203.48 122.37 202.34 124.38 201.19 126.39 200.05 128.41 198.91 130.42 197.76 132.43 196.62 134.44 195.48 136.45 194.33 138.46 193.19 140.48 192.04 142.49 190.9 144.5 189.76 146.51 188.61 148.52 187.47 150.54 186.32 152.55 185.18 154.56 184.04 156.57 182.89 158.58 181.75 160.6 180.6 162.61 179.46 164.62 178.32 166.63 177.17 168.64 176.03 170.65 174.89 172.67 173.74 174.68 172.6 176.69 171.45 178.7 170.31 180.71 169.17 182.73 168.02 184.74 166.88 186.75 165.73 188.76 164.59 190.77 163.45 192.78 162.3 194.8 161.16 196.81 160.01 198.82 158.87"/></g><line class="cls-9" x1="31.77" y1="255.84" x2="31.77" y2="147.75"/><text class="cls-21" transform="translate(15.72 253.8)"><tspan x="0" y="0">1.2</tspan></text><text class="cls-21" transform="translate(15.72 229.29)"><tspan x="0" y="0">1.4</tspan></text><text class="cls-21" transform="translate(15.72 204.79)"><tspan x="0" y="0">1.6</tspan></text><text class="cls-21" transform="translate(15.72 180.28)"><tspan x="0" y="0">1.8</tspan></text><text class="cls-21" transform="translate(15.72 155.78)"><tspan x="0" y="0">2.0</tspan></text><path class="cls-6" d="M29.03,250.93h2.74m-2.74-24.51h2.74m-2.74-24.5h2.74m-2.74-24.51h2.74m-2.74-24.5h2.74"/><line class="cls-9" x1="210.17" y1="255.84" x2="210.17" y2="147.75"/><path class="cls-6" d="M210.17,241.02h2.74m-2.74-19.48h2.74m-2.74-19.58h2.74m-2.74-19.48h2.74m-2.74-19.58h2.74"/><text class="cls-21" transform="translate(215.1 243.89)"><tspan x="0" y="0">3</tspan></text><text class="cls-21" transform="translate(215.1 224.41)"><tspan x="0" y="0">4</tspan></text><text class="cls-21" transform="translate(215.1 204.83)"><tspan x="0" y="0">5</tspan></text><text class="cls-21" transform="translate(215.1 185.35)"><tspan x="0" y="0">6</tspan></text><text class="cls-21" transform="translate(215.1 165.77)"><tspan x="0" y="0">7</tspan></text><line class="cls-9" x1="31.77" y1="255.84" x2="210.17" y2="255.84"/><path class="cls-6" d="M39.88,258.58v-2.74m40.55,2.74v-2.74m40.54,2.74v-2.74m40.55,2.74v-2.74m40.54,2.74v-2.74"/><text class="cls-21" transform="translate(34.1 266.52)"><tspan x="0" y="0">0%</tspan></text><text class="cls-21" transform="translate(72.43 266.52)"><tspan x="0" y="0">25%</tspan></text><text class="cls-21" transform="translate(112.97 266.52)"><tspan x="0" y="0">50%</tspan></text><text class="cls-21" transform="translate(153.51 266.52)"><tspan x="0" y="0">75%</tspan></text><text class="cls-21" transform="translate(191.83 266.52)"><tspan x="0" y="0">100%</tspan></text><text class="cls-21" transform="translate(98.97 276.76)"><tspan x="0" y="0">Con</tspan></text><text class="cls-21" transform="translate(114.21 276.76)"><tspan x="0" y="0">ver</tspan></text><text class="cls-21" transform="translate(126.1 276.76)"><tspan x="0" y="0">sion</tspan></text><text class="cls-21" transform="translate(11.22 221.13) rotate(-90)"><tspan x="0" y="0">Disper</tspan></text><text class="cls-21" transform="translate(11.22 196.35) rotate(-90)"><tspan x="0" y="0">sity</tspan></text><text class="cls-21" transform="translate(222.29 184.9) rotate(90)"><tspan x="0" y="0">Mn (kDa)</tspan></text></g><g><rect class="cls-15" y=".27" width="235.28" height="141.73"/><rect class="cls-12" y=".27" width="235.28" height="141.73"/><g class="cls-19"><rect class="cls-15" x="41.11" y="5.75" width="188.69" height="108.09"/></g><path class="cls-11" d="M51.63,109c0-1.08-.87-1.95-1.95-1.95s-1.95,.87-1.95,1.95,.87,1.95,1.95,1.95,1.95-.87,1.95-1.95"/><path class="cls-11" d="M68.79,91.24c0-1.08-.87-1.95-1.95-1.95s-1.95,.87-1.95,1.95,.87,1.95,1.95,1.95,1.95-.87,1.95-1.95"/><path class="cls-11" d="M85.95,79.48c0-1.08-.87-1.95-1.95-1.95s-1.95,.87-1.95,1.95,.87,1.95,1.95,1.95,1.95-.87,1.95-1.95"/><path class="cls-11" d="M103.11,71.56c0-1.08-.87-1.95-1.95-1.95s-1.95,.87-1.95,1.95,.87,1.95,1.95,1.95,1.95-.87,1.95-1.95"/><path class="cls-11" d="M137.43,42.04c0-1.08-.87-1.95-1.95-1.95s-1.95,.87-1.95,1.95,.87,1.95,1.95,1.95,1.95-.87,1.95-1.95"/><g class="cls-18"><path class="cls-11" d="M223.11,12.64c0-1.08-.87-1.95-1.95-1.95s-1.95,.87-1.95,1.95,.87,1.95,1.95,1.95,1.95-.87,1.95-1.95"/><polyline class="cls-2" points="49.69 100.74 51.86 99.54 54.03 98.34 56.2 97.15 58.37 95.95 60.54 94.75 62.72 93.56 64.89 92.36 67.06 91.17 69.23 89.97 71.4 88.77 73.57 87.58 75.74 86.38 77.91 85.18 80.09 83.99 82.26 82.79 84.43 81.59 86.6 80.4 88.77 79.2 90.94 78 93.11 76.81 95.28 75.61 97.46 74.42 99.63 73.22 101.8 72.02 103.97 70.83 106.14 69.63 108.31 68.43 110.48 67.24 112.65 66.04 114.83 64.84 117 63.65 119.17 62.45 121.34 61.25 123.51 60.06 125.68 58.86 127.85 57.67 130.03 56.47 132.2 55.27 134.37 54.08 136.54 52.88 138.71 51.68 140.88 50.49 143.05 49.29 145.22 48.09 147.4 46.9 149.57 45.7 151.74 44.51 153.91 43.31 156.08 42.11 158.25 40.92 160.42 39.72 162.59 38.52 164.77 37.33 166.94 36.13 169.11 34.93 171.28 33.74 173.45 32.54 175.62 31.34 177.79 30.15 179.96 28.95 182.14 27.76 184.31 26.56 186.48 25.36 188.65 24.17 190.82 22.97 192.99 21.77 195.16 20.58 197.34 19.38 199.51 18.18 201.68 16.99 203.85 15.79 206.02 14.59 208.19 13.4 210.36 12.2 212.53 11.01"/></g><line class="cls-9" x1="41.11" y1="113.84" x2="41.11" y2="5.75"/><text class="cls-21" transform="translate(24.62 111.8)"><tspan x="0" y="0">0%</tspan></text><text class="cls-21" transform="translate(20.17 87.23)"><tspan x="0" y="0">25%</tspan></text><text class="cls-21" transform="translate(20.17 62.67)"><tspan x="0" y="0">50%</tspan></text><text class="cls-21" transform="translate(20.17 38.1)"><tspan x="0" y="0">75%</tspan></text><text class="cls-21" transform="translate(15.72 13.53)"><tspan x="0" y="0">100%</tspan></text><path class="cls-6" d="M38.37,108.93h2.74m-2.74-24.57h2.74m-2.74-24.57h2.74m-2.74-24.56h2.74m-2.74-24.57h2.74"/><line class="cls-9" x1="41.11" y1="113.84" x2="229.8" y2="113.84"/><path class="cls-6" d="M49.69,116.58v-2.74m57.17,2.74v-2.74m57.18,2.74v-2.74m57.18,2.74v-2.74"/><text class="cls-21" transform="translate(47.47 124.52)"><tspan x="0" y="0">0</tspan></text><text class="cls-21" transform="translate(100.19 124.52)"><tspan x="0" y="0">100</tspan></text><text class="cls-21" transform="translate(157.36 124.52)"><tspan x="0" y="0">200</tspan></text><text class="cls-21" transform="translate(214.55 124.52)"><tspan x="0" y="0">300</tspan></text><text class="cls-21" transform="translate(115.22 134.76)"><tspan x="0" y="0">Time (min)</tspan></text><text class="cls-21" transform="translate(11.22 81.79) rotate(-90)"><tspan x="0" y="0">Con</tspan></text><text class="cls-21" transform="translate(11.22 66.56) rotate(-90)"><tspan x="0" y="0">ver</tspan></text><text class="cls-21" transform="translate(11.22 54.67) rotate(-90)"><tspan x="0" y="0">sion</tspan></text></g><g><rect class="cls-15" x="1.3" y="279.17" width="235.28" height="141.73"/><rect class="cls-12" x="1.3" y="279.17" width="235.28" height="141.73"/><g class="cls-17"><rect class="cls-15" x="35.3" y="284.65" width="132" height="108.09"/><path class="cls-8" d="M43.08,387.83h.19m.31,0h.96l.06-.02h1.21l.06-.02h.57l.06-.02h.39l.06-.02h.44l.07-.02h.63l.07-.02h.44l.06-.02h.26l.06-.02h.26l.06-.02h.19l.06-.02h.26l.06-.02h.19l.06-.02h.26l.06-.02h.13l.06-.02h.19l.07-.02h.19l.06-.02h.13l.06-.02h.13l.06-.02h.13l.06-.02h.13l.06-.02h.13l.06-.02h.13l.06-.02h.07l.06-.02h.13l.06-.02h.06l.07-.02h.06l.06-.02h.13l.06-.02h.07l.06-.02h.07l.06-.02h.13l.06-.02h.06l.07-.02h.06l.06-.02h.07l.06-.02h.06l.07-.03h.06l.06-.02h.07l.06-.02h.06l.07-.03h.06l.06-.02h.07l.06-.03h.07l.06-.02h.06l.07-.03h.06l.06-.02,.07-.02h.06l.06-.02,.07-.02h.06l.06-.03h.07l.06-.03h.06l.07-.03h.06l.06-.03h.07l.06-.03h.07l.06-.03,.06-.02h.07l.06-.03h.06l.07-.03,.06-.02h.06l.07-.03,.06-.02h.06l.07-.03,.06-.02,.06-.02,.07-.02,.06-.02,.06-.02,.07-.02,.06-.02,.07-.02,.06-.02,.06-.02,.07-.02,.06-.02,.06-.02,.07-.02,.06-.02,.06-.02,.07-.02,.06-.02,.06-.03,.07-.02,.06-.02,.06-.02,.07-.02,.06-.03,.06-.02,.07-.02,.06-.03,.07-.02,.06-.02,.06-.03,.07-.03,.06-.02,.06-.02,.07-.03,.06-.03,.06-.02,.07-.03,.06-.03,.06-.02,.07-.03,.06-.03,.06-.02,.07-.03,.06-.03,.06-.03,.07-.03,.06-.02,.06-.03,.07-.03,.06-.03,.07-.03,.06-.03,.06-.03,.07-.03,.06-.04,.06-.03,.07-.03,.06-.03,.06-.03,.07-.03,.06-.04,.06-.03,.07-.03,.06-.03,.06-.04,.07-.03,.06-.04,.06-.03,.07-.04,.06-.03,.07-.04,.06-.03,.06-.04,.07-.03,.06-.04,.06-.04,.07-.04,.06-.03,.06-.04,.07-.04,.06-.04,.06-.04,.07-.04,.06-.04,.06-.04,.07-.04,.06-.04,.06-.04,.07-.04,.06-.04,.07-.04,.06-.04,.06-.05,.07-.04,.06-.04,.06-.05,.07-.04,.06-.05,.06-.04,.07-.05,.06-.04,.06-.05,.07-.04,.06-.05,.06-.04,.07-.05,.06-.05,.06-.05,.07-.04,.06-.05,.06-.05,.07-.05,.06-.05,.07-.05,.06-.05,.06-.05,.07-.05,.06-.05,.06-.06,.07-.05,.06-.05,.06-.05,.07-.06,.06-.05,.06-.05,.07-.06,.06-.05,.06-.06,.07-.06,.06-.05,.06-.06,.07-.05,.06-.06,.07-.06,.06-.06,.06-.06,.07-.05,.06-.06,.06-.06,.07-.06,.06-.06,.06-.05,.07-.06,.06-.06,.06-.06,.07-.06,.06-.06,.06-.06,.07-.06,.06-.07,.06-.06,.07-.06,.06-.06,.07-.07,.06-.06,.06-.07,.07-.06,.06-.07,.06-.07,.07-.06,.06-.07,.06-.07,.07-.07,.06-.07,.06-.07,.07-.07,.06-.07,.06-.07,.07-.07,.06-.07,.06-.08,.07-.07,.06-.08,.06-.07,.07-.08,.06-.07,.07-.08,.06-.07,.06-.08,.07-.08,.06-.08,.06-.08,.07-.08,.06-.08,.06-.08,.07-.08,.06-.08,.06-.08,.07-.08,.06-.08,.06-.08,.07-.09,.06-.08,.06-.08,.07-.09,.06-.08,.07-.09,.06-.08,.06-.09,.07-.08,.06-.09,.06-.08,.07-.09,.06-.09,.06-.08,.07-.09,.06-.09,.06-.09,.07-.09,.06-.09,.06-.09,.07-.09,.06-.09,.06-.09,.07-.1,.06-.09,.07-.09,.06-.1,.06-.09,.07-.09,.06-.1,.06-.09,.07-.1,.06-.09,.06-.1,.07-.09,.06-.1,.06-.1,.07-.09,.06-.1,.06-.1,.07-.1,.06-.1,.06-.1,.07-.11,.06-.1,.06-.1,.07-.1,.06-.11,.07-.1,.06-.11,.06-.1,.07-.11,.06-.1,.06-.11,.07-.11,.06-.11,.06-.1,.07-.11,.06-.11,.06-.11,.07-.11,.06-.1,.06-.11,.07-.12,.06-.11,.06-.11,.07-.11,.06-.11,.07-.11,.06-.12,.06-.11,.07-.11,.06-.11,.06-.12,.07-.11,.06-.12,.06-.11,.07-.12,.06-.12,.06-.11,.07-.12,.06-.12,.06-.12,.07-.12,.06-.12,.06-.12,.07-.12,.06-.12,.07-.12,.06-.12,.06-.12,.07-.12,.06-.13,.06-.12,.07-.12,.06-.12,.06-.13,.07-.12,.06-.13,.06-.12,.07-.13,.06-.12,.06-.13,.07-.13,.06-.12,.06-.13,.07-.13,.06-.13,.06-.13,.07-.13,.06-.13,.07-.13,.06-.13,.06-.13,.07-.13,.06-.13,.06-.14,.07-.13,.06-.13,.06-.13,.07-.14,.06-.13,.06-.13,.07-.14,.06-.13,.06-.14,.07-.13,.06-.14,.06-.14,.07-.14,.06-.13,.07-.14,.06-.14,.06-.14,.07-.14,.06-.14,.06-.14,.07-.14,.06-.14,.06-.14,.07-.14,.06-.14,.06-.15,.07-.14,.06-.14,.06-.14,.07-.14,.06-.15,.06-.14,.07-.14,.06-.15,.07-.14,.06-.15,.06-.14,.07-.15,.06-.15,.06-.14,.07-.15,.06-.15,.06-.15,.07-.14,.06-.15,.06-.15,.07-.15,.06-.15,.06-.15,.07-.15,.06-.15,.06-.14,.07-.15,.06-.15,.06-.16,.07-.15,.06-.15,.07-.15,.06-.15,.06-.16,.07-.15,.06-.15,.06-.16,.07-.15,.06-.16,.06-.15,.07-.16,.06-.15,.06-.15,.07-.16,.06-.15,.06-.16,.07-.16,.06-.15,.06-.16,.07-.15,.06-.16,.07-.16,.06-.15,.06-.16,.07-.16,.06-.16,.06-.16,.07-.16,.06-.16,.06-.16,.07-.16,.06-.16,.06-.16,.07-.16,.06-.16,.06-.16,.07-.16,.06-.16,.06-.16,.07-.16,.06-.16,.07-.16,.06-.16,.06-.17,.07-.16,.06-.16,.06-.16,.07-.17,.06-.16,.06-.16,.07-.16,.06-.17,.06-.16,.07-.17,.06-.16,.06-.16,.07-.17,.06-.16,.06-.16,.07-.17,.06-.16,.06-.17,.07-.16,.06-.17,.07-.16,.06-.17,.06-.17,.07-.16,.06-.17,.06-.16,.07-.17,.06-.17,.06-.16,.07-.17,.06-.16,.06-.17,.07-.17,.06-.16,.06-.17,.07-.17,.06-.16,.06-.17,.07-.17,.06-.17,.07-.16,.06-.17,.06-.17,.07-.17,.06-.17,.06-.17,.07-.16,.06-.17,.06-.17,.07-.17,.06-.17,.06-.16,.07-.17,.06-.17,.06-.17,.07-.17,.06-.17,.06-.16,.07-.17,.06-.17,.07-.17,.06-.17,.06-.17,.07-.17,.06-.17,.06-.17,.07-.17,.06-.17,.06-.17,.07-.17,.06-.16,.06-.17,.07-.17,.06-.17,.06-.17,.07-.17,.06-.17,.06-.17,.07-.17,.06-.17,.06-.16,.07-.17,.06-.17,.07-.17,.06-.17,.06-.17,.07-.16,.06-.17,.06-.17,.07-.17,.06-.17,.06-.16,.07-.17,.06-.17,.06-.16,.07-.17,.06-.17,.06-.17,.07-.17,.06-.16,.06-.17,.07-.17,.06-.17,.07-.16,.06-.17,.06-.17,.07-.17,.06-.16,.06-.17,.07-.17,.06-.16,.06-.17,.07-.17,.06-.16,.06-.17,.07-.16,.06-.17,.06-.16,.07-.17,.06-.16,.06-.17,.07-.16,.06-.17,.07-.16,.06-.16,.06-.17,.07-.16,.06-.17,.06-.16,.07-.16,.06-.17,.06-.16,.07-.16,.06-.17,.06-.16,.07-.16,.06-.16,.06-.16,.07-.16,.06-.16,.06-.17,.07-.16,.06-.16,.06-.16,.07-.16,.06-.16,.07-.16,.06-.16,.06-.16,.07-.16,.06-.16,.06-.16,.07-.15,.06-.16,.06-.16,.07-.16,.06-.16,.06-.16,.07-.15,.06-.16,.06-.16,.07-.15,.06-.16,.06-.15,.07-.16,.06-.15,.07-.16,.06-.15,.06-.16,.07-.15,.06-.15,.06-.16,.07-.15,.06-.15,.06-.16,.07-.15,.06-.15,.06-.15,.07-.15,.06-.15,.06-.16,.07-.15,.06-.14,.06-.15,.07-.15,.06-.15,.07-.15,.06-.15,.06-.15,.07-.15,.06-.14,.06-.15,.07-.15,.06-.14,.06-.15,.07-.14,.06-.15,.06-.14,.07-.15,.06-.14,.06-.15,.07-.14,.06-.14,.06-.14,.07-.15,.06-.14,.06-.14,.07-.14,.06-.14,.07-.14,.06-.14,.06-.14,.07-.14,.06-.14,.06-.14,.07-.13,.06-.14,.06-.14,.07-.14,.06-.13,.06-.14,.07-.13,.06-.14,.06-.13,.07-.14,.06-.13,.06-.13,.07-.14,.06-.13,.07-.13,.06-.13,.06-.13,.07-.13,.06-.13,.06-.13,.07-.12,.06-.13,.06-.13,.07-.13,.06-.12,.06-.13,.07-.13,.06-.12,.06-.13,.07-.12,.06-.13,.06-.12,.07-.12,.06-.12,.07-.13,.06-.12,.06-.12,.07-.12,.06-.12,.06-.12,.07-.12,.06-.12,.06-.12,.07-.12,.06-.12,.06-.12,.07-.12,.06-.11,.06-.12,.07-.11,.06-.12,.06-.11,.07-.12,.06-.11,.06-.11,.07-.12,.06-.11,.07-.11,.06-.11,.06-.11,.07-.11,.06-.11,.06-.11,.07-.11,.06-.11,.06-.1,.07-.11,.06-.11,.06-.11,.07-.1,.06-.11,.06-.1,.07-.11,.06-.1,.06-.11,.07-.1,.06-.1,.07-.1,.06-.11,.06-.1,.07-.1,.06-.1,.06-.1,.07-.1,.06-.1,.06-.1,.07-.1,.06-.1,.06-.09,.07-.1,.06-.1,.06-.09,.07-.1,.06-.09,.06-.1,.07-.09,.06-.1,.07-.09,.06-.09,.06-.09,.07-.09,.06-.09,.06-.09,.07-.09,.06-.09,.06-.09,.07-.09,.06-.09,.06-.09,.07-.09,.06-.09,.06-.09,.07-.08,.06-.09,.06-.09,.07-.08,.06-.09,.06-.08,.07-.08,.06-.09,.07-.08,.06-.08,.06-.09,.07-.08,.06-.08,.06-.08,.07-.08,.06-.08,.06-.08,.07-.08,.06-.08,.06-.08,.07-.07,.06-.08,.06-.08,.07-.08,.06-.07,.06-.08,.07-.08,.06-.07,.07-.08,.06-.07,.06-.08,.07-.07,.06-.07,.06-.08,.07-.07,.06-.07,.06-.07,.07-.08,.06-.07,.06-.07,.07-.07,.06-.07,.06-.06,.07-.07,.06-.07,.06-.07,.07-.07,.06-.06,.07-.07,.06-.06,.06-.07,.07-.06,.06-.07,.06-.06,.07-.06,.06-.07,.06-.06m0,0l.07-.06,.06-.06,.06-.07,.07-.06,.06-.06,.06-.06,.07-.06,.06-.06,.06-.06,.07-.06,.06-.06,.06-.06,.07-.05,.06-.06,.07-.06,.06-.05,.06-.06,.07-.06,.06-.05,.06-.06,.07-.05,.06-.06,.06-.05,.07-.05,.06-.06,.06-.05,.07-.05,.06-.06,.06-.05,.07-.05,.06-.05,.06-.05,.07-.05,.06-.05,.07-.05,.06-.05,.06-.05,.07-.04,.06-.05,.06-.05,.07-.04,.06-.05,.06-.05,.07-.04,.06-.05,.06-.04,.07-.05,.06-.04,.06-.05,.07-.04,.06-.04,.06-.04,.07-.04,.06-.04,.07-.05,.06-.04,.06-.04,.07-.04,.06-.04,.06-.03,.07-.04,.06-.04,.06-.04,.07-.04,.06-.04,.06-.03,.07-.04,.06-.04,.06-.03,.07-.04,.06-.04,.06-.03,.07-.04,.06-.03,.06-.04,.07-.03,.06-.04,.07-.03,.06-.03,.06-.03,.07-.03,.06-.04,.06-.03,.07-.03,.06-.03,.06-.03,.07-.03,.06-.03,.06-.02,.07-.03,.06-.03,.06-.03,.07-.03,.06-.02,.06-.03,.07-.02,.06-.03,.07-.02,.06-.03,.06-.03,.07-.02,.06-.02,.06-.03,.07-.02,.06-.02,.06-.02,.07-.03,.06-.02,.06-.02,.07-.02,.06-.02,.06-.02,.07-.02,.06-.02,.06-.02,.07-.02,.06-.02,.07-.02,.06-.02,.06-.02,.07-.02,.06-.02h.06l.07-.03,.06-.02h.06l.07-.03h.06l.06-.02,.07-.02h.06l.06-.02h.07l.06-.02h.06l.07-.02h.06l.06-.02h.07l.06-.02h.07l.06-.02h.13l.06-.02h.19l.06-.02h.96l.06,.02h.13l.06,.02h.06l.07,.02h.06l.06,.02h.07l.06,.02,.06,.02h.07l.06,.03h.06l.07,.03,.06,.02,.07,.02,.06,.02,.06,.02,.07,.02,.06,.02,.06,.03,.07,.02,.06,.03,.06,.03,.07,.03,.06,.03,.06,.03,.07,.03,.06,.03,.06,.04,.07,.04,.06,.03,.06,.04,.07,.04,.06,.04,.06,.05,.07,.04,.06,.05,.07,.04,.06,.05,.06,.05,.07,.05,.06,.06,.06,.05,.07,.06,.06,.06,.06,.06,.07,.06,.06,.06,.06,.07,.07,.06,.06,.07,.06,.07,.07,.08,.06,.07,.06,.08,.07,.08,.06,.08,.07,.08,.06,.09,.06,.08,.07,.09,.06,.1,.06,.09,.07,.09,.06,.1,.06,.1,.07,.1,.06,.1,.06,.11,.07,.11,.06,.11,.06,.11,.07,.12,.06,.11,.06,.12,.07,.12,.06,.13,.07,.13,.06,.13,.06,.13,.07,.14,.06,.13,.06,.14,.07,.14,.06,.15,.06,.15,.07,.15,.06,.15,.06,.15,.07,.16,.06,.16,.06,.16,.07,.16,.06,.17,.06,.16,.07,.18,.06,.17,.07,.17,.06,.18,.06,.18,.07,.19,.06,.19,.06,.19,.07,.19,.06,.19,.06,.2,.07,.2,.06,.2,.06,.21,.07,.21,.06,.21,.06,.21,.07,.22,.06,.22,.06,.22,.07,.22,.06,.23,.06,.22,.07,.24,.06,.23,.07,.24,.06,.24,.06,.24,.07,.24,.06,.25,.06,.25,.07,.26,.06,.25,.06,.26,.07,.26,.06,.27,.06,.26,.07,.27,.06,.27,.06,.28,.07,.27,.06,.28,.06,.28,.07,.29,.06,.28,.07,.29,.06,.28,.06,.29,.07,.3,.06,.29,.06,.3,.07,.3,.06,.3,.06,.3,.07,.31,.06,.3,.06,.31,.07,.31,.06,.31,.06,.32,.07,.31,.06,.32,.06,.32,.07,.32,.06,.32,.07,.33,.06,.32,.06,.33,.07,.33,.06,.33,.06,.33,.07,.33,.06,.33,.06,.34,.07,.34,.06,.33,.06,.34,.07,.34,.06,.34,.06,.35,.07,.34,.06,.35,.06,.35,.07,.34,.06,.35,.06,.35,.07,.35,.06,.35,.07,.36,.06,.35,.06,.35,.07,.36,.06,.35,.06,.35,.07,.36,.06,.35,.06,.35,.07,.36,.06,.35,.06,.35,.07,.36,.06,.35,.06,.36,.07,.35,.06,.35,.06,.36,.07,.35,.06,.35,.07,.35,.06,.35,.06,.34,.07,.35,.06,.35,.06,.34,.07,.34,.06,.35,.06,.34,.07,.34,.06,.33,.06,.34,.07,.33,.06,.33,.06,.33,.07,.33,.06,.33,.06,.33,.07,.33,.06,.32,.07,.32,.06,.32,.06,.32,.07,.32,.06,.32,.06,.31,.07,.32,.06,.31,.06,.31,.07,.31,.06,.31,.06,.31,.07,.31,.06,.3,.06,.31,.07,.3,.06,.3,.06,.3,.07,.3,.06,.3,.06,.29,.07,.3,.06,.29,.07,.29,.06,.28,.06,.29,.07,.29,.06,.28,.06,.28,.07,.27,.06,.28,.06,.27,.07,.27,.06,.27,.06,.26,.07,.27,.06,.26,.06,.25,.07,.26,.06,.25,.06,.25,.07,.25,.06,.24,.07,.24,.06,.24,.06,.23,.07,.24,.06,.23,.06,.22,.07,.22,.06,.22,.06,.22,.07,.21,.06,.2,.06,.21,.07,.2,.06,.2,.06,.19,.07,.19,.06,.19,.06,.18,.07,.19,.06,.18,.07,.17,.06,.17,.06,.17,.07,.17,.06,.17,.06,.16,.07,.16,.06,.16,.06,.15,.07,.15,.06,.15,.06,.15,.07,.15,.06,.14,.06,.14,.07,.15,.06,.14,.06,.13,.07,.14,.06,.13,.06,.14,.07,.13,.06,.13,.07,.13,.06,.13,.06,.13,.07,.13,.06,.12,.06,.13,.07,.12,.06,.13,.06,.12,.07,.13,.06,.12,.06,.12,.07,.12,.06,.12,.06,.12,.07,.12,.06,.12,.06,.12,.07,.11,.06,.12,.07,.11,.06,.11,.06,.12,.07,.1,.06,.11,.06,.11,.07,.1,.06,.1,.06,.11,.07,.09,.06,.1,.06,.1,.07,.09,.06,.09,.06,.09,.07,.08,.06,.09,.06,.08,.07,.08,.06,.07,.07,.07,.06,.07,.06,.07,.07,.07,.06,.06,.06,.06,.07,.06,.06,.05,.06,.05,.07,.05,.06,.05,.06,.05,.07,.04,.06,.04,.06,.04,.07,.04,.06,.03,.06,.04,.07,.03,.06,.03,.06,.03,.07,.03,.06,.03,.07,.02,.06,.03,.06,.03,.07,.02,.06,.03,.06,.03,.07,.02,.06,.03,.06,.03,.07,.03,.06,.03,.06,.03,.07,.04,.06,.03,.06,.04,.07,.04,.06,.04,.06,.05,.07,.04,.06,.05,.07,.05,.06,.06,.06,.06,.07,.06,.06,.06,.06,.07,.07,.07,.06,.08,.06,.07,.07,.09,.06,.08,.06,.09,.07,.09,.06,.09,.06,.1,.07,.1,.06,.11,.06,.1,.07,.11,.06,.12,.07,.11,.06,.12,.06,.12,.07,.13,.06,.12,.06,.13,.07,.13,.06,.13,.06,.13,.07,.14,.06,.13,.06,.13,.07,.14,.06,.13,.06,.13,.07,.14,.06,.13,.06,.13,.07,.13,.06,.13,.06,.13,.07,.13,.06,.13,.07,.12,.06,.12,.06,.12,.07,.12,.06,.11,.06,.11,.07,.1,.06,.11,.06,.1,.07,.09,.06,.09,.06,.09,.07,.08,.06,.08,.06,.07,.07,.07,.06,.07,.06,.06,.07,.06,.06,.05,.07,.05,.06,.05,.06,.03,.07,.04,.06,.03,.06,.03,.07,.02,.06,.02h.06l.07,.03h.5l.07-.02h.06l.07-.02h.06l.06-.03h.07l.06-.02h.06l.07-.03h.06l.06-.02h.07l.06-.02h.44l.07,.02h.06l.06,.03,.07,.02,.06,.02,.07,.03,.06,.03,.06,.04,.07,.04,.06,.04,.06,.05,.07,.05,.06,.06,.06,.06,.07,.06,.06,.07,.06,.08,.07,.08,.06,.08,.06,.08,.07,.1,.06,.09,.06,.1,.07,.1,.06,.11,.07,.11,.06,.12,.06,.12,.07,.12,.06,.12,.06,.13,.07,.14,.06,.13,.06,.14,.07,.14,.06,.14,.06,.15,.07,.14,.06,.16,.06,.15,.07,.15,.06,.16,.06,.16,.07,.16,.06,.16,.07,.16,.06,.17,.06,.16,.07,.17,.06,.16,.06,.17,.07,.16,.06,.17,.06,.16,.07,.17,.06,.16,.06,.16,.07,.17,.06,.16,.06,.16,.07,.16,.06,.16,.06,.15,.07,.16,.06,.15,.06,.16,.07,.15,.06,.15,.07,.15,.06,.14,.06,.14,.07,.15,.06,.13,.06,.14,.07,.13,.06,.13,.06,.13,.07,.13,.06,.12,.06,.12,.07,.12,.06,.11,.06,.11,.07,.11,.06,.1,.06,.1,.07,.1,.06,.1,.07,.09,.06,.09,.06,.09,.07,.08,.06,.08,.06,.08,.07,.08,.06,.07,.06,.07,.07,.07,.06,.06,.06,.06,.07,.06,.06,.05,.06,.06,.07,.05,.06,.05,.06,.05,.07,.04,.06,.04,.07,.04,.06,.04,.06,.04,.07,.04,.06,.03,.06,.04,.07,.03,.06,.03,.06,.03,.07,.03,.06,.03,.06,.03,.07,.02,.06,.03,.06,.03,.07,.02,.06,.03,.06,.03,.07,.02,.06,.03,.06,.02,.07,.03,.06,.03,.07,.02,.06,.03,.06,.03,.07,.03,.06,.03,.06,.03,.07,.03,.06,.03,.06,.03,.07,.03,.06,.04,.06,.03,.07,.03,.06,.04,.06,.03,.07,.03,.06,.04,.06,.03,.07,.04,.06,.03,.07,.04,.06,.03,.06,.04,.07,.04,.06,.03,.06,.04,.07,.03,.06,.04,.06,.04,.07,.03,.06,.03,.06,.04,.07,.03,.06,.03,.06,.03,.07,.03,.06,.03,.06,.02,.07,.02,.06,.03,.07,.02h.06l.06,.03h.07l.06,.02h.06l.07,.02h.31l.07-.02,.06-.02,.06-.02,.07-.02,.06-.02,.06-.03,.07-.03,.06-.04,.06-.04,.07-.04,.06-.05,.07-.05,.06-.06"/><path class="cls-5" d="M41.3,387.78h1.52l.07-.02h1.14l.06-.02h1.08l.07-.02h1.14l.06-.02h.57l.07-.02h.5l.07-.02h.38l.06-.02h.32l.06-.02h.45l.06-.02h.45l.06-.02h.25l.07-.02h.25l.06-.02h.26l.06-.02h.19l.07-.02h.12l.07-.02h.19l.06-.02h.13l.06-.02h.19l.06-.02h.19l.07-.02h.19l.06-.02h.13l.06-.02h.19l.07-.02h.12l.07-.02h.06l.06-.02h.13l.06-.02h.13l.07-.02h.12l.07-.02h.06l.06-.02h.07l.06-.02h.13l.06-.02h.06l.07-.02h.06l.06-.02h.07l.06-.02h.13l.06-.02h.06l.07-.02h.13l.06-.02h.06l.07-.02h.06l.06-.02h.07l.06-.02,.06-.02h.07l.06-.02h.06l.07-.02,.06-.02h.06l.07-.02,.06-.02h.06l.07-.02h.06l.07-.03h.06l.06-.02,.07-.02h.06l.06-.02h.07l.06-.03h.06l.07-.03h.06l.06-.02,.07-.02h.06l.06-.03,.07-.02h.06l.06-.03h.07l.06-.03h.07l.06-.03,.06-.02h.07l.06-.03,.06-.02h.07l.06-.03,.06-.02,.07-.02h.06l.06-.03,.07-.02,.06-.02,.06-.02h.07l.06-.03,.06-.02,.07-.02,.06-.02,.07-.02,.06-.02h.06l.07-.03,.06-.02,.06-.02,.07-.02,.06-.03,.06-.02,.07-.02,.06-.02,.06-.02,.07-.02,.06-.02,.06-.03,.07-.02,.06-.02,.06-.02,.07-.03,.06-.02,.06-.02,.07-.03,.06-.02,.07-.03,.06-.02,.06-.03,.07-.02,.06-.03,.06-.03,.07-.02,.06-.03,.06-.03,.07-.03,.06-.02,.06-.03,.07-.03,.06-.03,.06-.02,.07-.03,.06-.03,.06-.03,.07-.02,.06-.03,.07-.03,.06-.03,.06-.03,.07-.03,.06-.02,.06-.03,.07-.03,.06-.04,.06-.03,.07-.03,.06-.03,.06-.03,.07-.03,.06-.03,.06-.04,.07-.03,.06-.03,.06-.04,.07-.03,.06-.03,.07-.04,.06-.03,.06-.04,.07-.03,.06-.04,.06-.03,.07-.04,.06-.03,.06-.04,.07-.04,.06-.03,.06-.04,.07-.04,.06-.03,.06-.04,.07-.04,.06-.04,.06-.04,.07-.04,.06-.04,.06-.04,.07-.04,.06-.04,.07-.04,.06-.04,.06-.04,.07-.04,.06-.05,.06-.04,.07-.04,.06-.05,.06-.04,.07-.04,.06-.05,.06-.04,.07-.04,.06-.05,.06-.04,.07-.05,.06-.04,.06-.05,.07-.05,.06-.04,.07-.05,.06-.05,.06-.04,.07-.05,.06-.05,.06-.05,.07-.05,.06-.05,.06-.05,.07-.05,.06-.05,.06-.05,.07-.05,.06-.05,.06-.06,.07-.05,.06-.05,.06-.05,.07-.06,.06-.05,.07-.05,.06-.06,.06-.05,.07-.06,.06-.05,.06-.06,.07-.05,.06-.06,.06-.06,.07-.05,.06-.06,.06-.06,.07-.06,.06-.06,.06-.06,.07-.06,.06-.06,.06-.06,.07-.06,.06-.06,.06-.06,.07-.06,.06-.06,.07-.07,.06-.06,.06-.06,.07-.06,.06-.07,.06-.07,.07-.06,.06-.07,.06-.06,.07-.07,.06-.06,.06-.07,.07-.07,.06-.06,.06-.07,.07-.07,.06-.07,.06-.06,.07-.07,.06-.07,.07-.07,.06-.07,.06-.07,.07-.07,.06-.07,.06-.08,.07-.07,.06-.07,.06-.08,.07-.07,.06-.07,.06-.08,.07-.07,.06-.08,.06-.08,.07-.07,.06-.08,.06-.08,.07-.07,.06-.08,.07-.08,.06-.08,.06-.08,.07-.08,.06-.08,.06-.08,.07-.08,.06-.08,.06-.08,.07-.08,.06-.08,.06-.08,.07-.08,.06-.08,.06-.08,.07-.09,.06-.08,.06-.09,.07-.08,.06-.09,.06-.08,.07-.09,.06-.08,.07-.09,.06-.09,.06-.08,.07-.09,.06-.09,.06-.09,.07-.09,.06-.09,.06-.09,.07-.09,.06-.09,.06-.09,.07-.09,.06-.09,.06-.09,.07-.1,.06-.09,.06-.09,.07-.1,.06-.09,.07-.1,.06-.09,.06-.1,.07-.09,.06-.1,.06-.1,.07-.09,.06-.1,.06-.1,.07-.09,.06-.1,.06-.1,.07-.1,.06-.1,.06-.1,.07-.1,.06-.1,.06-.1,.07-.1,.06-.1,.07-.11,.06-.1,.06-.1,.07-.11,.06-.1,.06-.11,.07-.1,.06-.11,.06-.1,.07-.11,.06-.1,.06-.11,.07-.11,.06-.1,.06-.11,.07-.11,.06-.11,.06-.11,.07-.11,.06-.11,.06-.11,.07-.11,.06-.11,.07-.12,.06-.11,.06-.11,.07-.12,.06-.11,.06-.11,.07-.12,.06-.11,.06-.12,.07-.11,.06-.12,.06-.11,.07-.12,.06-.12,.06-.11,.07-.12,.06-.11,.06-.12,.07-.12,.06-.12,.07-.12,.06-.11,.06-.12,.07-.12,.06-.12,.06-.12,.07-.12,.06-.13,.06-.12,.07-.12,.06-.12,.06-.12,.07-.13,.06-.12,.06-.12,.07-.13,.06-.12,.06-.13,.07-.12,.06-.13,.07-.12,.06-.13,.06-.13,.07-.12,.06-.13,.06-.13,.07-.13,.06-.12,.06-.13,.07-.13,.06-.13,.06-.13,.07-.13,.06-.13,.06-.13,.07-.13,.06-.13,.06-.13,.07-.13,.06-.13,.06-.13,.07-.14,.06-.13,.07-.13,.06-.14,.06-.13,.07-.14,.06-.13,.06-.14,.07-.13,.06-.14,.06-.13,.07-.14,.06-.13,.06-.14,.07-.13,.06-.14,.06-.14,.07-.13,.06-.14,.06-.14,.07-.14,.06-.14,.07-.13,.06-.14,.06-.14,.07-.14,.06-.14,.06-.14,.07-.14,.06-.14,.06-.15,.07-.14,.06-.14,.06-.14,.07-.14,.06-.14,.06-.15,.07-.14,.06-.14,.06-.15,.07-.14,.06-.14,.07-.15,.06-.14,.06-.15,.07-.14,.06-.15,.06-.14,.07-.15,.06-.14,.06-.15,.07-.15,.06-.14,.06-.15,.07-.15,.06-.15,.06-.15,.07-.15,.06-.14,.06-.15,.07-.15,.06-.15,.06-.15,.07-.15,.06-.15,.07-.14,.06-.15,.06-.15,.07-.15,.06-.15,.06-.15,.07-.15,.06-.15,.06-.15,.07-.15,.06-.15,.06-.15,.07-.16,.06-.15,.06-.15,.07-.15,.06-.15,.06-.16,.07-.15,.06-.15,.07-.16,.06-.15,.06-.15,.07-.15,.06-.16,.06-.15,.07-.15,.06-.16,.06-.15,.07-.16,.06-.15,.06-.16,.07-.15,.06-.16,.06-.15,.07-.16,.06-.15,.06-.16,.07-.15,.06-.16,.07-.15,.06-.16,.06-.16,.07-.15,.06-.16,.06-.16,.07-.15,.06-.16,.06-.15,.07-.16,.06-.16,.06-.15,.07-.16,.06-.16,.06-.16,.07-.15,.06-.16,.06-.16,.07-.16,.06-.16,.06-.16,.07-.15,.06-.16,.07-.16,.06-.16,.06-.16,.07-.16,.06-.16,.06-.15,.07-.16,.06-.16,.06-.16,.07-.16,.06-.16,.06-.16,.07-.16,.06-.15,.06-.16,.07-.16,.06-.16,.06-.16,.07-.16,.06-.16,.07-.16,.06-.16,.06-.16,.07-.16,.06-.16,.06-.16,.07-.16,.06-.16,.06-.16,.07-.16,.06-.16,.06-.16,.07-.16,.06-.16,.06-.16,.07-.16,.06-.16,.06-.16,.07-.16,.06-.16,.07-.15,.06-.16,.06-.16,.07-.16,.06-.16,.06-.16,.07-.16,.06-.16,.06-.16,.07-.16,.06-.16,.06-.15,.07-.16,.06-.17,.06-.16,.07-.16,.06-.16,.06-.16,.07-.16,.06-.16,.06-.16,.07-.16,.06-.16,.07-.16,.06-.16,.06-.16,.07-.16,.06-.15,.06-.16,.07-.16,.06-.16,.06-.16,.07-.16,.06-.16,.06-.16,.07-.15,.06-.16,.06-.16,.07-.16,.06-.16,.06-.16,.07-.15,.06-.16,.07-.16,.06-.16,.06-.16,.07-.16,.06-.16,.06-.15,.07-.16,.06-.16,.06-.16,.07-.16,.06-.16,.06-.16,.07-.16,.06-.16,.06-.16,.07-.16,.06-.16,.06-.16,.07-.15,.06-.16,.07-.16,.06-.16,.06-.16,.07-.16,.06-.16,.06-.16,.07-.16,.06-.15,.06-.16,.07-.16,.06-.16,.06-.15,.07-.16,.06-.16,.06-.16,.07-.15,.06-.16,.06-.16,.07-.16,.06-.16,.06-.16,.07-.15,.06-.16,.07-.16,.06-.16,.06-.16,.07-.16,.06-.15,.06-.16,.07-.16,.06-.16,.06-.16,.07-.16,.06-.15,.06-.16,.07-.16,.06-.16,.06-.15,.07-.16,.06-.16,.06-.16,.07-.16,.06-.16,.07-.15,.06-.16,.06-.16,.07-.16,.06-.16,.06-.16,.07-.16,.06-.16,.06-.16,.07-.15,.06-.16,.06-.16,.07-.16,.06-.16,.06-.16,.07-.16,.06-.16,.06-.16,.07-.16,.06-.16,.07-.16,.06-.16,.06-.16,.07-.16,.06-.16,.06-.16,.07-.16,.06-.16,.06-.16,.07-.16,.06-.15,.06-.16,.07-.16,.06-.16,.06-.16,.07-.16,.06-.16,.06-.16,.07-.16,.06-.16,.06-.17,.07-.16,.06-.16,.07-.16,.06-.16,.06-.16,.07-.16,.06-.16,.06-.16,.07-.17,.06-.16,.06-.16,.07-.16,.06-.16,.06-.16,.07-.16,.06-.17,.06-.16,.07-.16,.06-.16,.06-.16,.07-.16,.06-.16,.07-.16,.06-.16,.06-.16,.07-.16,.06-.16,.06-.16,.07-.17,.06-.16,.06-.16,.07-.16,.06-.16,.06-.16,.07-.16,.06-.16,.06-.17,.07-.16,.06-.16,.06-.16,.07-.16,.06-.16,.07-.17,.06-.16,.06-.16,.07-.16,.06-.16,.06-.16,.07-.16,.06-.16,.06-.15,.07-.17,.06-.16,.06-.16,.07-.15,.06-.16,.06-.16,.07-.16,.06-.16,.06-.15,.07-.16,.06-.16,.06-.16,.07-.15,.06-.16,.07-.15,.06-.16,.06-.15,.07-.15,.06-.16,.06-.15,.07-.15,.06-.15,.06-.15,.07-.16,.06-.15,.06-.15,.07-.15m0,0l.06-.15,.06-.14,.07-.15,.06-.15,.06-.15,.07-.14,.06-.15,.07-.14,.06-.14,.06-.14,.07-.14,.06-.15,.06-.14,.07-.13,.06-.14,.06-.14,.07-.13,.06-.14,.06-.13,.07-.14,.06-.13,.06-.13,.07-.13,.06-.12,.06-.13,.07-.12,.06-.13,.07-.12,.06-.12,.06-.12,.07-.11,.06-.12,.06-.11,.07-.12,.06-.11,.06-.11,.07-.1,.06-.11,.06-.1,.07-.1,.06-.1,.06-.1,.07-.1,.06-.1,.06-.09,.07-.09,.06-.09,.06-.08,.07-.09,.06-.08,.07-.08,.06-.08,.06-.07,.07-.07,.06-.07,.06-.07,.07-.07,.06-.06,.06-.06,.07-.06,.06-.05,.06-.05,.07-.05,.06-.05,.06-.04,.07-.04,.06-.04,.06-.03,.07-.03,.06-.03,.07-.02,.06-.03,.06-.02h.07l.06-.02h.06l.07-.02h.25l.06,.02,.07,.02,.06,.02,.06,.02,.07,.03,.06,.03,.06,.03,.07,.04,.06,.04,.07,.04,.06,.05,.06,.05,.07,.06,.06,.06,.06,.07,.07,.06,.06,.08,.06,.07,.07,.08,.06,.09,.06,.09,.07,.09,.06,.1,.06,.1,.07,.1,.06,.11,.06,.12,.07,.11,.06,.13,.06,.12,.07,.13,.06,.14,.07,.14,.06,.14,.06,.15,.07,.15,.06,.15,.06,.16,.07,.17,.06,.17,.06,.17,.07,.17,.06,.18,.06,.19,.07,.19,.06,.19,.06,.2,.07,.2,.06,.21,.06,.21,.07,.21,.06,.22,.07,.23,.06,.22,.06,.24,.07,.23,.06,.24,.06,.25,.07,.24,.06,.25,.06,.26,.07,.26,.06,.27,.06,.26,.07,.27,.06,.28,.06,.28,.07,.28,.06,.29,.06,.29,.07,.29,.06,.3,.07,.3,.06,.3,.06,.31,.07,.31,.06,.32,.06,.32,.07,.32,.06,.32,.06,.33,.07,.33,.06,.33,.06,.34,.07,.34,.06,.34,.06,.35,.07,.35,.06,.35,.06,.36,.07,.36,.06,.36,.06,.36,.07,.36,.06,.37,.07,.37,.06,.38,.06,.37,.07,.38,.06,.38,.06,.38,.07,.38,.06,.38,.06,.39,.07,.39,.06,.39,.06,.39,.07,.39,.06,.39,.06,.4,.07,.39,.06,.4,.06,.4,.07,.4,.06,.4,.07,.4,.06,.4,.06,.41,.07,.4,.06,.41,.06,.41,.07,.41,.06,.41,.06,.41,.07,.41,.06,.41,.06,.41,.07,.41,.06,.42,.06,.41,.07,.41,.06,.41,.06,.41,.07,.41,.06,.41,.07,.41,.06,.41,.06,.41,.07,.41,.06,.41,.06,.4,.07,.41,.06,.41,.06,.4,.07,.41,.06,.4,.06,.4,.07,.4,.06,.4,.06,.4,.07,.4,.06,.4,.06,.4,.07,.39,.06,.39,.06,.39,.07,.39,.06,.39,.07,.38,.06,.39,.06,.38,.07,.38,.06,.37,.06,.38,.07,.38,.06,.37,.06,.37,.07,.37,.06,.36,.06,.37,.07,.36,.06,.36,.06,.36,.07,.35,.06,.35,.06,.35,.07,.35,.06,.34,.07,.35,.06,.34,.06,.34,.07,.33,.06,.33,.06,.33,.07,.33,.06,.32,.06,.33,.07,.31,.06,.32,.06,.31,.07,.31,.06,.31,.06,.3,.07,.31,.06,.29,.06,.3,.07,.29,.06,.29,.07,.29,.06,.28,.06,.28,.07,.28,.06,.28,.06,.27,.07,.27,.06,.26,.06,.26,.07,.26,.06,.26,.06,.25,.07,.25,.06,.25,.06,.24,.07,.25,.06,.23,.06,.24,.07,.23,.06,.23,.07,.23,.06,.22,.06,.22,.07,.22,.06,.21,.06,.22,.07,.21,.06,.2,.06,.2,.07,.2,.06,.2,.06,.19,.07,.19,.06,.19,.06,.19,.07,.18,.06,.18,.06,.17,.07,.17,.06,.17,.06,.17,.07,.17,.06,.16,.07,.16,.06,.16,.06,.15,.07,.15,.06,.15,.06,.15,.07,.15,.06,.14,.06,.14,.07,.14,.06,.13,.06,.14,.07,.13,.06,.13,.06,.13,.07,.12,.06,.12,.06,.12,.07,.12,.06,.11,.07,.12,.06,.11,.06,.11,.07,.11,.06,.1,.06,.1,.07,.11,.06,.09,.06,.1,.07,.1,.06,.09,.06,.09,.07,.09,.06,.09,.06,.09,.07,.08,.06,.09,.06,.08,.07,.08,.06,.08,.07,.08,.06,.08,.06,.07,.07,.08,.06,.07,.06,.07,.07,.07,.06,.07,.06,.07,.07,.07,.06,.06,.06,.07,.07,.06,.06,.06,.06,.06,.07,.06,.06,.06,.06,.06,.07,.06,.06,.06,.06,.06,.07,.06,.06,.06,.07,.05,.06,.06,.06,.05,.07,.06,.06,.05,.06,.05,.07,.06,.06,.05,.06,.05,.07,.05,.06,.05,.06,.05,.07,.05,.06,.05,.06,.05,.07,.05,.06,.05,.06,.05,.07,.04,.06,.05,.07,.05,.06,.04,.06,.05,.07,.04,.06,.05,.06,.04,.07,.05,.06,.04,.06,.04,.07,.05,.06,.04,.06,.04,.07,.05,.06,.04,.06,.04,.07,.05,.06,.04,.06,.04,.07,.05,.06,.04,.07,.04,.06,.05,.06,.04,.07,.04,.06,.05,.06,.04,.07,.04,.06,.05,.06,.04,.07,.05,.06,.04,.06,.05,.07,.05,.06,.04,.06,.05,.07,.05,.06,.05,.06,.05,.07,.06,.06,.05,.06,.05,.07,.06,.06,.05,.07,.06,.06,.05,.06,.06,.07,.06,.06,.05,.06,.06,.07,.06,.06,.06,.06,.06,.07,.06,.06,.06,.06,.05,.07,.06,.06,.06,.06,.06,.07,.06,.06,.06,.06,.06,.07,.06,.06,.06,.07,.07,.06,.06,.06,.06,.07,.06,.06,.06,.06,.06,.07,.06,.06,.06,.06,.05,.07,.06,.06,.06,.06,.06,.07,.06,.06,.06,.06,.05,.07,.06,.06,.06,.06,.05,.07,.06,.06,.05,.07,.06,.06,.06,.06,.05,.07,.06,.06,.06,.06,.05,.07,.06,.06,.06,.06,.06,.07,.06,.06,.06,.06,.06,.07,.06,.06,.06,.06,.07,.07,.06,.06,.06,.06,.07,.07,.07,.06,.07,.06,.07,.07,.07,.06,.07,.07,.07,.06,.08,.06,.07,.07,.08,.06,.08,.06,.08,.07,.08,.06,.09,.06,.08,.07,.09,.06,.09,.06,.09,.07,.09,.06,.09,.06,.09,.07,.09,.06,.1,.06,.09,.07,.1,.06,.09,.07,.1,.06,.1,.06,.09,.07,.1,.06,.1,.06,.1,.07,.1,.06,.1,.06,.1,.07,.11,.06,.1,.06,.1,.07,.1,.06,.1,.06,.1,.07,.1,.06,.1,.06,.1,.07,.1,.06,.1,.07,.1,.06,.1,.06,.09,.07,.1,.06,.09,.06,.1,.07,.09,.06,.09,.06,.09,.07,.09,.06,.09,.06,.09,.07,.09,.06,.08,.06,.09,.07,.08,.06,.08,.06,.09,.07,.08,.06,.08,.06,.08,.07,.08,.06,.08,.07,.08,.06,.07,.06,.08,.07,.08,.06,.07,.06,.08,.07,.07,.06,.07,.06,.08,.07,.07,.06,.07,.06,.07,.07,.07,.06,.07,.06,.07,.07,.07,.06,.08,.06,.07,.07,.07,.06,.07,.07,.07,.06,.07,.06,.07,.07,.07,.06,.08,.06,.07,.07,.07,.06,.07,.06,.07,.07,.07,.06,.08,.06,.07,.07,.07,.06,.07,.06,.07,.07,.07,.06,.07,.06,.07,.07,.07,.06,.07,.07,.07,.06,.07,.06,.06,.07,.07,.06,.07,.06,.07,.07,.07,.06,.06,.06,.07,.07,.06,.06,.07,.06,.07,.07,.06,.06,.07,.06,.06,.07,.06,.06,.06,.06,.06,.07,.06,.06,.06,.06,.06,.07,.05,.06,.06,.07,.05,.06,.05,.06,.06,.07,.05,.06,.04,.06,.05,.07,.05,.06,.04,.06,.05,.07,.04,.06,.04,.06,.04,.07,.04,.06,.04,.06,.04,.07,.03,.06,.04,.06,.03,.07,.03,.06,.03,.07,.02,.06,.03,.06,.02,.07,.02,.06,.02,.06,.02,.07,.02h.06l.06,.03h.07l.06,.02h.06l.07,.02h.06l.06,.02h.32l.07,.02h.12l.07-.02h.12l.07-.02h.12l.07-.03h.06l.06-.02,.07-.02h.06l.06-.03,.07-.02,.06-.02,.06-.02,.07-.02,.06-.02,.06-.03,.07-.02,.06-.02,.07-.03,.06-.03,.06-.02,.07-.03,.06-.03,.06-.02,.07-.03,.06-.03,.06-.03,.07-.02,.06-.03,.06-.03,.07-.03,.06-.03,.06-.03,.07-.02,.06-.03,.06-.03,.07-.03,.06-.03,.07-.03,.06-.02,.06-.03,.07-.03,.06-.02,.06-.03,.07-.03,.06-.02,.06-.02,.07-.03,.06-.02,.06-.02,.07-.02,.06-.02,.06-.02h.07l.06-.03h.06l.07-.03h.06l.07-.02h.06l.06-.02h.13l.06-.02h.45l.06,.02h.13l.06,.02h.06l.07,.03h.06l.06,.03h.07l.06,.03,.07,.02,.06,.02,.06,.03,.07,.02,.06,.02,.06,.03,.07,.03,.06,.02,.06,.03,.07,.03,.06,.03,.06,.03,.07,.04,.06,.03,.06,.03,.07,.03,.06,.04,.06,.03,.07,.04,.06,.03,.07,.04,.06,.03,.06,.04,.07,.04,.06,.03,.06,.04,.07,.04,.06,.03,.06,.04,.07,.03,.06,.04,.06,.03,.07,.04,.06,.03,.06,.04,.07,.03,.06,.04,.06,.03,.07,.03,.06,.03,.07,.04,.06,.03,.06,.03,.07,.03,.06,.03,.06,.03,.07,.03,.06,.03,.06,.02,.07,.03,.06,.02,.06,.03,.07,.02,.06,.03,.06,.02,.07,.02,.06,.03,.06,.02,.07,.02,.06,.02,.06,.02,.07,.02h.06l.07,.03,.06,.02h.06l.07,.03h.06l.06,.03h.07l.06,.02h.06l.07,.03h.12l.07,.02h.06l.06,.02h.07l.06,.02h.13l.06,.02h.13l.06,.02h.13l.06,.02h.19l.07,.02h.25l.06,.02h.26l.06,.02h.89l.06-.02h.13l.06-.02h.07l.06-.02h.06l.07-.02h.06l.07-.03,.06-.02"/><path class="cls-10" d="M41.3,387.75h1.01l.07-.02h1.01l.07-.02h.76l.06-.02h.96l.06-.02h.51l.06-.02h1.08l.06-.02h.38l.07-.02h.31l.07-.02h.38l.06-.02h.38l.07-.02h.25l.06-.02h.32l.07-.02h.31l.07-.02h.19l.06-.02h.19l.06-.02h.26l.06-.02h.19l.07-.02h.19l.06-.02h.13l.06-.02h.19l.06-.02h.13l.06-.02h.13l.07-.02h.12l.07-.02h.12l.07-.02h.12l.07-.02h.12l.07-.02h.12l.07-.02h.06l.06-.02h.07l.06-.02h.13l.06-.02h.07l.06-.02h.13l.06-.02h.06l.07-.02h.06l.06-.02h.07l.06-.02h.06l.07-.02h.06l.06-.02h.07l.06-.02h.06l.07-.02h.06l.07-.02h.06l.06-.02h.07l.06-.02h.06l.07-.02h.06l.06-.02,.07-.02h.06l.06-.02h.07l.06-.02,.06-.02h.07l.06-.02h.06l.07-.03h.06l.07-.02,.06-.02h.06l.07-.03h.06l.06-.02,.07-.02,.06-.02h.06l.07-.03h.06l.06-.03h.07l.06-.03h.06l.07-.03h.06l.06-.03,.07-.02h.06l.07-.03h.06l.06-.03,.07-.02h.06l.06-.03,.07-.02h.06l.06-.03,.07-.02,.06-.02,.06-.02,.07-.02h.06l.06-.03,.07-.02,.06-.02,.06-.02,.07-.02,.06-.02,.07-.02,.06-.02,.06-.02,.07-.02,.06-.02,.06-.02,.07-.03,.06-.02,.06-.02,.07-.02,.06-.02,.06-.02,.07-.03,.06-.02,.06-.02,.07-.03,.06-.02,.06-.02,.07-.03,.06-.02,.06-.03,.07-.02,.06-.03,.07-.02,.06-.03,.06-.02,.07-.03,.06-.02,.06-.03,.07-.03,.06-.02,.06-.03,.07-.02,.06-.03,.06-.03,.07-.03,.06-.03,.06-.03,.07-.03,.06-.02,.06-.03,.07-.03,.06-.03,.07-.03,.06-.03,.06-.03,.07-.03,.06-.03,.06-.03,.07-.03,.06-.03,.06-.03,.07-.03,.06-.03,.06-.04,.07-.03,.06-.03,.06-.04,.07-.03,.06-.04,.06-.03,.07-.03,.06-.04,.07-.03,.06-.04,.06-.04,.07-.03,.06-.04,.06-.03,.07-.04,.06-.04,.06-.04,.07-.04,.06-.03,.06-.04,.07-.04,.06-.04,.06-.04,.07-.04,.06-.04,.06-.05,.07-.04,.06-.04,.06-.04,.07-.04,.06-.04,.07-.05,.06-.04,.06-.04,.07-.04,.06-.04,.06-.05,.07-.04,.06-.04,.06-.05,.07-.04,.06-.05,.06-.04,.07-.05,.06-.04,.06-.05,.07-.05,.06-.05,.06-.04,.07-.05,.06-.05,.07-.04,.06-.05,.06-.05,.07-.05,.06-.05,.06-.05,.07-.05,.06-.05,.06-.05,.07-.05,.06-.05,.06-.05,.07-.06,.06-.05,.06-.05,.07-.05,.06-.06,.06-.05,.07-.06,.06-.05,.07-.06,.06-.05,.06-.06,.07-.05,.06-.06,.06-.06,.07-.05,.06-.06,.06-.06,.07-.06,.06-.05,.06-.06,.07-.06,.06-.06,.06-.06,.07-.06,.06-.06,.06-.06,.07-.07,.06-.06,.06-.06,.07-.07,.06-.06,.07-.06,.06-.06,.06-.07,.07-.06,.06-.07,.06-.06,.07-.07,.06-.06,.06-.07,.07-.07,.06-.06,.06-.07,.07-.07,.06-.07,.06-.07,.07-.07,.06-.06,.06-.07,.07-.08,.06-.07,.07-.07,.06-.07,.06-.07,.07-.07,.06-.07,.06-.08,.07-.07,.06-.08,.06-.07,.07-.07,.06-.08,.06-.07,.07-.08,.06-.07,.06-.08,.07-.07,.06-.08,.06-.08,.07-.07,.06-.08,.07-.08,.06-.08,.06-.08,.07-.08,.06-.08,.06-.08,.07-.08,.06-.08,.06-.08,.07-.08,.06-.08,.06-.09,.07-.08,.06-.08,.06-.09,.07-.08,.06-.09,.06-.08,.07-.09,.06-.08,.06-.09,.07-.09,.06-.08,.07-.09,.06-.09,.06-.09,.07-.08,.06-.09,.06-.09,.07-.09,.06-.09,.06-.09,.07-.09,.06-.09,.06-.09,.07-.1,.06-.09,.06-.09,.07-.09,.06-.1,.06-.09,.07-.1,.06-.09,.07-.1,.06-.09,.06-.1,.07-.1,.06-.09,.06-.1,.07-.1,.06-.1,.06-.1,.07-.09,.06-.1,.06-.1,.07-.1,.06-.1,.06-.1,.07-.11,.06-.1,.06-.1,.07-.1,.06-.1,.07-.11,.06-.1,.06-.1,.07-.11,.06-.1,.06-.1,.07-.11,.06-.1,.06-.11,.07-.11,.06-.1,.06-.11,.07-.11,.06-.11,.06-.1,.07-.11,.06-.11,.06-.11,.07-.11,.06-.11,.06-.11,.07-.11,.06-.11,.07-.11,.06-.11,.06-.11,.07-.12,.06-.11,.06-.11,.07-.12,.06-.11,.06-.12,.07-.11,.06-.12,.06-.12,.07-.11,.06-.12,.06-.12,.07-.12,.06-.11,.06-.12,.07-.12,.06-.12,.07-.12,.06-.11,.06-.12,.07-.12,.06-.12,.06-.12,.07-.12,.06-.12,.06-.13,.07-.12,.06-.12,.06-.12,.07-.12,.06-.13,.06-.12,.07-.12,.06-.13,.06-.12,.07-.12,.06-.13,.07-.12,.06-.13,.06-.12,.07-.13,.06-.13,.06-.12,.07-.13,.06-.13,.06-.13,.07-.13,.06-.13,.06-.13,.07-.13,.06-.13,.06-.12,.07-.14,.06-.13,.06-.13,.07-.13,.06-.13,.06-.13,.07-.13,.06-.13,.07-.13,.06-.14,.06-.13,.07-.13,.06-.14,.06-.13,.07-.13,.06-.14,.06-.13,.07-.14,.06-.14,.06-.13,.07-.14,.06-.13,.06-.14,.07-.14,.06-.14,.06-.13,.07-.14,.06-.14,.07-.13,.06-.14,.06-.14,.07-.14,.06-.13,.06-.14,.07-.14,.06-.14,.06-.14,.07-.14,.06-.14,.06-.14,.07-.14,.06-.14,.06-.14,.07-.14,.06-.15,.06-.14,.07-.14,.06-.14,.07-.14,.06-.15,.06-.14,.07-.14,.06-.15,.06-.14,.07-.14,.06-.15,.06-.14,.07-.15,.06-.14,.06-.15,.07-.14,.06-.15,.06-.14,.07-.15,.06-.15,.06-.14,.07-.15,.06-.14,.06-.15,.07-.15,.06-.15,.07-.14,.06-.15,.06-.15,.07-.14,.06-.15,.06-.15,.07-.15,.06-.14,.06-.15,.07-.15,.06-.15,.06-.15,.07-.15,.06-.14,.06-.15,.07-.15,.06-.15,.06-.15,.07-.15,.06-.15,.07-.15,.06-.15,.06-.16,.07-.15,.06-.15,.06-.15,.07-.15,.06-.15,.06-.15,.07-.15,.06-.15,.06-.15,.07-.15,.06-.16,.06-.15,.07-.15,.06-.15,.06-.15,.07-.16,.06-.15,.07-.15,.06-.15,.06-.15,.07-.16,.06-.15,.06-.15,.07-.16,.06-.15,.06-.15,.07-.15,.06-.16,.06-.15,.07-.15,.06-.16,.06-.15,.07-.16,.06-.15,.06-.15,.07-.16,.06-.15,.06-.16,.07-.15,.06-.16,.07-.15,.06-.15,.06-.16,.07-.15,.06-.16,.06-.15,.07-.16,.06-.15,.06-.16,.07-.15,.06-.15,.06-.16,.07-.15,.06-.15,.06-.16,.07-.15,.06-.15,.06-.16,.07-.15,.06-.16,.07-.15,.06-.15,.06-.16,.07-.15,.06-.16,.06-.15,.07-.16,.06-.15,.06-.15,.07-.16,.06-.15,.06-.16,.07-.15,.06-.16,.06-.15,.07-.16,.06-.15,.06-.16,.07-.15,.06-.15,.07-.16,.06-.15,.06-.16,.07-.15,.06-.15,.06-.16,.07-.15,.06-.15,.06-.16,.07-.15,.06-.15,.06-.16,.07-.15,.06-.15,.06-.16,.07-.15,.06-.15,.06-.16,.07-.15,.06-.15,.06-.16,.07-.15,.06-.15,.07-.15,.06-.15,.06-.15,.07-.15,.06-.16,.06-.15,.07-.15,.06-.15,.06-.15,.07-.15,.06-.15,.06-.15,.07-.15,.06-.15,.06-.15,.07-.15,.06-.15,.06-.15,.07-.15,.06-.15,.07-.15,.06-.15,.06-.15,.07-.15,.06-.15,.06-.15,.07-.15,.06-.15,.06-.15,.07-.14,.06-.15,.06-.15,.07-.15,.06-.15,.06-.14,.07-.15,.06-.15,.06-.15,.07-.15,.06-.14,.07-.15,.06-.15,.06-.15,.07-.15,.06-.14,.06-.15,.07-.15,.06-.14,.06-.15,.07-.14,.06-.15,.06-.15,.07-.14,.06-.15,.06-.14,.07-.14,.06-.15,.06-.14,.07-.15,.06-.14,.06-.15,.07-.14,.06-.14,.07-.15,.06-.14,.06-.14,.07-.15,.06-.14,.06-.14,.07-.15,.06-.14,.06-.14,.07-.14,.06-.15,.06-.14,.07-.14,.06-.14,.06-.14,.07-.15,.06-.14,.06-.14,.07-.14,.06-.14,.07-.14,.06-.14,.06-.14,.07-.14,.06-.14,.06-.14,.07-.14,.06-.14,.06-.14,.07-.14,.06-.14,.06-.14,.07-.14,.06-.14,.06-.14,.07-.14,.06-.14,.06-.14,.07-.14,.06-.14,.07-.14,.06-.13,.06-.14,.07-.14,.06-.14,.06-.13,.07-.14,.06-.14,.06-.14,.07-.13,.06-.14,.06-.13,.07-.14,.06-.14,.06-.13,.07-.14,.06-.14,.06-.13,.07-.14,.06-.14,.06-.13,.07-.14,.06-.14,.07-.13,.06-.14,.06-.13,.07-.14,.06-.13,.06-.14,.07-.14,.06-.13,.06-.14,.07-.13,.06-.14,.06-.13,.07-.14,.06-.13,.06-.13,.07-.14,.06-.13,.06-.13,.07-.14,.06-.13,.07-.13,.06-.14,.06-.13,.07-.13,.06-.13,.06-.14,.07-.13,.06-.13,.06-.14,.07-.13,.06-.14,.06-.13,.07-.13,.06-.13,.06-.14,.07-.13,.06-.13,.06-.14,.07-.13,.06-.13,.07-.13,.06-.13,.06-.14,.07-.13,.06-.13,.06-.13,.07-.13,.06-.14,.06-.13,.07-.13,.06-.13,.06-.13,.07-.13,.06-.13,.06-.14,.07-.13,.06-.13,.06-.13,.07-.13,.06-.13,.06-.13,.07-.13,.06-.12,.07-.13,.06-.13,.06-.13,.07-.13,.06-.13,.06-.13,.07-.13,.06-.13,.06-.14,.07-.13,.06-.13,.06-.13,.07-.13m0,0l.06-.13,.06-.13,.07-.12,.06-.13,.06-.13,.07-.13,.06-.13,.07-.13,.06-.12,.06-.13,.07-.13,.06-.13,.06-.12,.07-.13,.06-.13,.06-.12,.07-.13,.06-.13,.06-.12,.07-.13,.06-.12,.06-.13,.07-.12,.06-.13,.06-.12,.07-.13,.06-.12,.07-.13,.06-.12,.06-.12,.07-.12,.06-.13,.06-.12,.07-.12,.06-.12,.06-.13,.07-.12,.06-.12,.06-.12,.07-.12,.06-.12,.06-.12,.07-.12,.06-.12,.06-.11,.07-.12,.06-.12,.06-.11,.07-.12,.06-.12,.07-.11,.06-.12,.06-.11,.07-.11,.06-.11,.06-.11,.07-.12,.06-.11,.06-.11,.07-.1,.06-.11,.06-.11,.07-.1,.06-.11,.06-.11,.07-.1,.06-.1,.06-.1,.07-.1,.06-.1,.07-.1,.06-.1,.06-.1,.07-.1,.06-.09,.06-.1,.07-.09,.06-.09,.06-.09,.07-.09,.06-.09,.06-.08,.07-.09,.06-.08,.06-.08,.07-.09,.06-.08,.06-.08,.07-.07,.06-.08,.07-.07,.06-.07,.06-.07,.07-.07,.06-.07,.06-.07,.07-.06,.06-.06,.06-.06,.07-.06,.06-.06,.06-.05,.07-.05,.06-.05,.06-.05,.07-.04,.06-.05,.06-.04,.07-.04,.06-.03,.06-.04,.07-.03,.06-.03,.07-.03,.06-.03,.06-.02,.07-.02,.06-.02,.06-.02h.07l.06-.02h.06l.07-.02h.25l.06,.02h.07l.06,.02,.06,.02,.07,.02,.06,.02,.07,.03,.06,.03,.06,.03,.07,.04,.06,.04,.06,.04,.07,.04,.06,.05,.06,.05,.07,.06,.06,.06,.06,.06,.07,.06,.06,.07,.06,.07,.07,.08,.06,.08,.06,.08,.07,.09,.06,.09,.07,.09,.06,.1,.06,.1,.07,.1,.06,.11,.06,.11,.07,.12,.06,.11,.06,.13,.07,.12,.06,.13,.06,.14,.07,.13,.06,.14,.06,.15,.07,.15,.06,.15,.06,.16,.07,.16,.06,.16,.06,.17,.07,.17,.06,.18,.07,.18,.06,.18,.06,.19,.07,.19,.06,.2,.06,.19,.07,.21,.06,.2,.06,.21,.07,.21,.06,.22,.06,.22,.07,.22,.06,.23,.06,.23,.07,.24,.06,.24,.06,.24,.07,.25,.06,.25,.07,.25,.06,.26,.06,.26,.07,.26,.06,.27,.06,.27,.07,.28,.06,.27,.06,.28,.07,.29,.06,.29,.06,.29,.07,.29,.06,.3,.06,.3,.07,.3,.06,.31,.06,.31,.07,.31,.06,.31,.07,.32,.06,.32,.06,.33,.07,.32,.06,.33,.06,.33,.07,.34,.06,.33,.06,.34,.07,.35,.06,.34,.06,.35,.07,.35,.06,.35,.06,.35,.07,.36,.06,.36,.06,.36,.07,.36,.06,.36,.06,.37,.07,.36,.06,.37,.07,.37,.06,.37,.06,.38,.07,.37,.06,.37,.06,.38,.07,.38,.06,.38,.06,.38,.07,.38,.06,.38,.06,.38,.07,.39,.06,.38,.06,.39,.07,.39,.06,.39,.06,.39,.07,.39,.06,.39,.07,.39,.06,.39,.06,.4,.07,.39,.06,.39,.06,.39,.07,.39,.06,.4,.06,.39,.07,.39,.06,.39,.06,.39,.07,.39,.06,.39,.06,.39,.07,.39,.06,.39,.06,.39,.07,.39,.06,.38,.07,.39,.06,.38,.06,.39,.07,.38,.06,.39,.06,.38,.07,.38,.06,.38,.06,.37,.07,.38,.06,.38,.06,.37,.07,.38,.06,.37,.06,.37,.07,.36,.06,.37,.06,.37,.07,.36,.06,.36,.07,.36,.06,.36,.06,.36,.07,.35,.06,.35,.06,.35,.07,.35,.06,.35,.06,.34,.07,.34,.06,.34,.06,.33,.07,.34,.06,.33,.06,.33,.07,.33,.06,.33,.06,.32,.07,.32,.06,.32,.06,.31,.07,.32,.06,.31,.07,.31,.06,.3,.06,.31,.07,.3,.06,.29,.06,.3,.07,.29,.06,.29,.06,.28,.07,.29,.06,.28,.06,.27,.07,.28,.06,.27,.06,.27,.07,.26,.06,.27,.06,.26,.07,.26,.06,.25,.07,.26,.06,.25,.06,.25,.07,.24,.06,.24,.06,.24,.07,.24,.06,.23,.06,.23,.07,.23,.06,.23,.06,.22,.07,.22,.06,.22,.06,.21,.07,.21,.06,.21,.06,.2,.07,.21,.06,.2,.07,.19,.06,.2,.06,.19,.07,.19,.06,.19,.06,.18,.07,.18,.06,.18,.06,.18,.07,.17,.06,.17,.06,.17,.07,.16,.06,.17,.06,.16,.07,.16,.06,.15,.06,.15,.07,.15,.06,.15,.06,.15,.07,.14,.06,.14,.07,.14,.06,.14,.06,.14,.07,.13,.06,.13,.06,.13,.07,.13,.06,.12,.06,.12,.07,.12,.06,.12,.06,.12,.07,.11,.06,.11,.06,.11,.07,.11,.06,.11,.06,.1,.07,.1,.06,.1,.07,.1,.06,.1,.06,.09,.07,.09,.06,.09,.06,.09,.07,.09,.06,.08,.06,.08,.07,.08,.06,.08,.06,.08,.07,.08,.06,.07,.06,.07,.07,.08,.06,.07,.06,.07,.07,.06,.06,.07,.07,.07,.06,.06,.06,.07,.07,.06,.06,.06,.06,.06,.07,.07,.06,.06,.06,.05,.07,.06,.06,.06,.06,.06,.07,.05,.06,.06,.06,.05,.07,.06,.06,.06,.06,.05,.07,.05,.06,.06,.06,.05,.07,.06,.06,.05,.07,.06,.06,.05,.06,.05,.07,.06,.06,.05,.06,.05,.07,.06,.06,.05,.06,.05,.07,.05,.06,.06,.06,.05,.07,.05,.06,.05,.06,.05,.07,.05,.06,.05,.06,.05,.07,.05,.06,.04,.07,.05,.06,.05,.06,.04,.07,.05,.06,.04,.06,.05,.07,.04,.06,.05,.06,.04,.07,.04,.06,.05,.06,.04,.07,.04,.06,.04,.06,.04,.07,.04,.06,.04,.06,.04,.07,.03,.06,.04,.07,.04,.06,.04,.06,.03,.07,.04,.06,.04,.06,.04,.07,.03,.06,.04,.06,.04,.07,.04,.06,.04,.06,.04,.07,.04,.06,.05,.06,.04,.07,.04,.06,.05,.06,.05,.07,.05,.06,.05,.06,.05,.07,.05,.06,.06,.07,.05,.06,.06,.06,.06,.07,.06,.06,.07,.06,.06,.07,.07,.06,.07,.06,.07,.07,.07,.06,.07,.06,.08,.07,.08,.06,.08,.06,.08,.07,.08,.06,.08,.06,.09,.07,.09,.06,.08,.07,.09,.06,.09,.06,.1,.07,.09,.06,.1,.06,.09,.07,.1,.06,.09,.06,.1,.07,.1,.06,.1,.06,.1,.07,.1,.06,.09,.06,.1,.07,.1,.06,.1,.06,.1,.07,.09,.06,.1,.07,.1,.06,.09,.06,.1,.07,.09,.06,.1,.06,.09,.07,.09,.06,.1,.06,.09,.07,.09,.06,.09,.06,.09,.07,.09,.06,.09,.06,.08,.07,.09,.06,.09,.06,.08,.07,.08,.06,.09,.06,.08,.07,.08,.06,.08,.07,.09,.06,.08,.06,.08,.07,.08,.06,.08,.06,.08,.07,.08,.06,.08,.06,.08,.07,.08,.06,.08,.06,.08,.07,.08,.06,.09,.06,.08,.07,.08,.06,.09,.06,.08,.07,.09,.06,.08,.07,.09,.06,.09,.06,.09,.07,.08,.06,.09,.06,.1,.07,.09,.06,.09,.06,.09,.07,.1,.06,.09,.06,.1,.07,.1,.06,.1,.06,.09,.07,.1,.06,.1,.06,.1,.07,.11,.06,.1,.07,.1,.06,.1,.06,.1,.07,.11,.06,.1,.06,.1,.07,.11,.06,.1,.06,.1,.07,.11,.06,.1,.06,.11,.07,.1,.06,.1,.06,.11,.07,.1,.06,.1,.06,.1,.07,.1,.06,.1,.06,.1,.07,.1,.06,.09,.07,.09,.06,.1,.06,.09,.07,.09,.06,.09,.06,.08,.07,.09,.06,.08,.06,.08,.07,.08,.06,.07,.06,.08,.07,.07,.06,.07,.06,.07,.07,.07,.06,.06,.06,.07,.07,.06,.06,.05,.07,.06,.06,.05,.06,.06,.07,.05,.06,.05,.06,.04,.07,.05,.06,.04,.06,.04,.07,.04,.06,.04,.06,.03,.07,.04,.06,.03,.06,.03,.07,.03,.06,.02,.06,.03,.07,.02,.06,.02,.07,.02,.06,.02,.06,.02h.07l.06,.03h.06l.07,.02h.06l.06,.02h.07l.06,.02h.19l.06,.02h.77l.06-.02h.76l.06-.02h.39l.06,.02h.19l.06,.02h.13l.06,.02h.07l.06,.02h.06l.07,.02,.06,.02h.06l.07,.03h.06l.07,.03,.06,.02,.06,.02,.07,.02,.06,.02,.06,.02,.07,.02,.06,.03,.06,.02,.07,.03,.06,.03,.06,.02,.07,.03,.06,.03,.06,.03,.07,.03,.06,.03,.06,.04,.07,.03,.06,.04,.06,.03,.07,.04,.06,.03,.07,.04,.06,.04,.06,.04,.07,.04,.06,.04,.06,.04,.07,.04,.06,.04,.06,.05,.07,.04,.06,.04,.06,.05,.07,.04,.06,.04,.06,.05,.07,.04,.06,.04,.06,.05,.07,.04,.06,.05,.07,.04,.06,.04,.06,.05,.07,.04,.06,.05,.06,.04,.07,.04,.06,.05,.06,.04,.07,.04,.06,.04,.06,.05,.07,.04,.06,.04,.06,.04,.07,.03,.06,.04,.06,.04,.07,.04,.06,.03,.07,.04,.06,.03,.06,.04,.07,.03,.06,.03,.06,.04,.07,.03,.06,.03,.06,.03,.07,.04,.06,.03,.06,.03,.07,.02,.06,.03,.06,.03,.07,.03,.06,.03,.06,.02,.07,.03,.06,.03,.06,.02,.07,.02,.06,.03,.07,.02,.06,.02,.06,.03,.07,.02,.06,.02,.06,.02,.07,.02,.06,.02,.06,.02,.07,.02h.06l.06,.03,.07,.02h.06l.06,.03h.07l.06,.03h.06l.07,.03h.06l.07,.02h.06l.06,.03h.07l.06,.02h.06l.07,.02h.06l.06,.02h.13l.06,.02h.13l.06,.02h.39l.06,.02h.25l.07-.02h.12l.07-.02h.12l.07-.02h.06l.06-.03h.07l.06-.03h.06l.07-.03,.06-.02,.06-.02,.07-.02,.06-.02,.07-.03,.06-.02"/><path class="cls-4" d="M41.3,387.75h1.84l.06-.02h1.84l.07-.02h1.59l.06-.02h1.01l.07-.02h.95l.06-.02h.45l.06-.02h.57l.07-.02h.5l.07-.02h.44l.07-.02h.44l.06-.02h.26l.06-.02h.26l.06-.02h.25l.07-.02h.12l.07-.02h.19l.06-.02h.19l.07-.02h.12l.07-.02h.19l.06-.02h.19l.06-.02h.19l.07-.02h.12l.07-.02h.12l.07-.02h.13l.06-.02h.06l.07-.02h.12l.07-.02h.12l.07-.02h.06l.06-.02h.13l.06-.02h.07l.06-.02h.06l.07-.02h.06l.07-.02h.06l.06-.02h.07l.06-.02h.06l.07-.02h.06l.06-.02h.07l.06-.02h.06l.07-.02h.06l.06-.02h.07l.06-.02h.06l.07-.03h.06l.07-.02h.06l.06-.03h.07l.06-.02h.06l.07-.03h.06l.06-.02,.07-.02h.06l.06-.02,.07-.02h.06l.06-.02,.07-.02h.06l.06-.03h.07l.06-.02,.07-.02h.06l.06-.03h.07l.06-.03h.06l.07-.03h.06l.06-.02,.07-.02,.06-.02h.06l.07-.03,.06-.02h.06l.07-.03,.06-.02h.06l.07-.03,.06-.02,.06-.02,.07-.02,.06-.02h.07l.06-.03,.06-.02,.07-.03,.06-.02,.06-.02,.07-.02,.06-.02,.06-.02,.07-.02,.06-.02,.06-.02,.07-.02,.06-.02,.06-.02,.07-.02,.06-.02,.06-.02,.07-.03,.06-.02,.07-.02,.06-.02,.06-.02,.07-.03,.06-.02,.06-.03,.07-.02,.06-.03,.06-.02,.07-.03,.06-.02,.06-.03,.07-.02,.06-.03,.06-.03,.07-.02,.06-.03,.06-.03,.07-.02,.06-.03,.07-.03,.06-.03,.06-.03,.07-.03,.06-.02,.06-.03,.07-.03,.06-.03,.06-.03,.07-.03,.06-.03,.06-.03,.07-.03,.06-.03,.06-.03,.07-.03,.06-.04,.06-.03,.07-.03,.06-.03,.06-.03,.07-.04,.06-.03,.07-.03,.06-.04,.06-.03,.07-.03,.06-.04,.06-.03,.07-.04,.06-.03,.06-.04,.07-.03,.06-.04,.06-.04,.07-.03,.06-.04,.06-.04,.07-.04,.06-.04,.06-.04,.07-.04,.06-.04,.07-.04,.06-.04,.06-.04,.07-.04,.06-.04,.06-.04,.07-.04,.06-.04,.06-.04,.07-.05,.06-.04,.06-.04,.07-.04,.06-.05,.06-.04,.07-.05,.06-.04,.06-.05,.07-.04,.06-.05,.07-.05,.06-.04,.06-.05,.07-.05,.06-.05,.06-.04,.07-.05,.06-.05,.06-.05,.07-.05,.06-.05,.06-.05,.07-.05,.06-.05,.06-.05,.07-.05,.06-.06,.06-.05,.07-.05,.06-.06,.06-.05,.07-.05,.06-.06,.07-.05,.06-.06,.06-.06,.07-.05,.06-.06,.06-.06,.07-.05,.06-.06,.06-.06,.07-.06,.06-.06,.06-.06,.07-.06,.06-.06,.06-.06,.07-.06,.06-.06,.06-.06,.07-.07,.06-.06,.07-.06,.06-.06,.06-.07,.07-.06,.06-.07,.06-.06,.07-.07,.06-.06,.06-.07,.07-.06,.06-.07,.06-.07,.07-.07,.06-.06,.06-.07,.07-.07,.06-.07,.06-.07,.07-.07,.06-.08,.07-.07,.06-.07,.06-.07,.07-.07,.06-.08,.06-.07,.07-.07,.06-.08,.06-.07,.07-.08,.06-.07,.06-.08,.07-.07,.06-.08,.06-.08,.07-.08,.06-.07,.06-.08,.07-.08,.06-.08,.06-.08,.07-.08,.06-.08,.07-.09,.06-.08,.06-.08,.07-.08,.06-.09,.06-.08,.07-.09,.06-.08,.06-.09,.07-.08,.06-.09,.06-.09,.07-.09,.06-.08,.06-.09,.07-.09,.06-.09,.06-.09,.07-.09,.06-.09,.07-.09,.06-.09,.06-.1,.07-.09,.06-.09,.06-.09,.07-.1,.06-.09,.06-.1,.07-.09,.06-.1,.06-.1,.07-.09,.06-.1,.06-.1,.07-.1,.06-.1,.06-.1,.07-.1,.06-.1,.07-.1,.06-.1,.06-.11,.07-.1,.06-.1,.06-.1,.07-.11,.06-.1,.06-.11,.07-.1,.06-.11,.06-.1,.07-.11,.06-.11,.06-.11,.07-.11,.06-.11,.06-.11,.07-.11,.06-.11,.06-.11,.07-.11,.06-.12,.07-.11,.06-.11,.06-.12,.07-.11,.06-.12,.06-.11,.07-.12,.06-.11,.06-.12,.07-.11,.06-.12,.06-.12,.07-.12,.06-.12,.06-.12,.07-.12,.06-.11,.06-.13,.07-.12,.06-.12,.07-.12,.06-.12,.06-.12,.07-.13,.06-.12,.06-.13,.07-.12,.06-.13,.06-.13,.07-.12,.06-.13,.06-.13,.07-.13,.06-.13,.06-.13,.07-.13,.06-.13,.06-.13,.07-.13,.06-.13,.07-.14,.06-.13,.06-.14,.07-.13,.06-.14,.06-.13,.07-.14,.06-.14,.06-.13,.07-.14,.06-.14,.06-.14,.07-.14,.06-.14,.06-.14,.07-.14,.06-.14,.06-.15,.07-.14,.06-.14,.06-.14,.07-.15,.06-.14,.07-.15,.06-.15,.06-.14,.07-.15,.06-.15,.06-.14,.07-.15,.06-.15,.06-.15,.07-.15,.06-.15,.06-.15,.07-.15,.06-.16,.06-.15,.07-.15,.06-.16,.06-.15,.07-.16,.06-.15,.07-.16,.06-.15,.06-.16,.07-.16,.06-.16,.06-.16,.07-.15,.06-.16,.06-.16,.07-.16,.06-.17,.06-.16,.07-.16,.06-.16,.06-.17,.07-.16,.06-.16,.06-.17,.07-.16,.06-.17,.07-.16,.06-.17,.06-.17,.07-.17,.06-.16,.06-.17,.07-.17,.06-.17,.06-.17,.07-.17,.06-.17,.06-.17,.07-.18,.06-.17,.06-.17,.07-.18,.06-.17,.06-.18,.07-.17,.06-.18,.06-.17,.07-.18,.06-.18,.07-.17,.06-.18,.06-.18,.07-.18,.06-.18,.06-.18,.07-.18,.06-.18,.06-.18,.07-.18,.06-.19,.06-.18,.07-.18,.06-.19,.06-.18,.07-.19,.06-.19,.06-.18,.07-.19,.06-.19,.07-.19,.06-.19,.06-.19,.07-.19,.06-.19,.06-.19,.07-.19,.06-.19,.06-.19,.07-.2,.06-.19,.06-.19,.07-.2,.06-.19,.06-.2,.07-.2,.06-.19,.06-.2,.07-.2,.06-.19,.07-.2,.06-.2,.06-.2,.07-.2,.06-.2,.06-.2,.07-.2,.06-.2,.06-.21,.07-.2,.06-.2,.06-.2,.07-.21,.06-.2,.06-.2,.07-.21,.06-.2,.06-.21,.07-.21,.06-.2,.06-.21,.07-.21,.06-.21,.07-.21,.06-.21,.06-.22,.07-.21,.06-.21,.06-.21,.07-.22,.06-.21,.06-.21,.07-.22,.06-.21,.06-.22,.07-.22,.06-.21,.06-.22,.07-.22,.06-.22,.06-.22,.07-.22,.06-.22,.07-.22,.06-.22,.06-.23,.07-.22,.06-.23,.06-.22,.07-.23,.06-.22,.06-.23,.07-.23,.06-.23,.06-.22,.07-.23,.06-.23,.06-.23,.07-.24,.06-.23,.06-.23,.07-.23,.06-.24,.07-.23,.06-.23,.06-.24,.07-.23,.06-.24,.06-.23,.07-.24,.06-.24,.06-.23,.07-.24,.06-.24,.06-.24,.07-.24,.06-.24,.06-.24,.07-.25,.06-.24,.06-.25,.07-.24,.06-.25,.06-.24,.07-.25,.06-.25,.07-.25,.06-.24,.06-.25,.07-.26,.06-.25,.06-.25,.07-.25,.06-.25,.06-.26,.07-.25,.06-.25,.06-.26,.07-.26,.06-.25,.06-.26,.07-.26,.06-.25,.06-.26,.07-.26,.06-.26,.07-.26,.06-.26,.06-.26,.07-.26,.06-.26,.06-.27,.07-.26,.06-.26,.06-.27,.07-.26,.06-.26,.06-.27,.07-.26,.06-.27,.06-.27,.07-.27,.06-.26,.06-.27,.07-.27,.06-.26,.07-.27,.06-.27,.06-.27,.07-.27,.06-.27,.06-.27,.07-.27,.06-.27,.06-.27,.07-.27,.06-.26,.06-.27,.07-.27,.06-.27,.06-.27,.07-.27,.06-.27,.06-.27,.07-.27,.06-.26,.06-.27,.07-.27,.06-.27,.07-.27,.06-.26,.06-.27,.07-.27,.06-.26,.06-.27,.07-.26,.06-.27,.06-.26,.07-.26,.06-.26,.06-.27,.07-.26,.06-.26,.06-.25,.07-.26,.06-.26,.06-.26,.07-.25,.06-.25,.07-.25,.06-.25,.06-.25,.07-.25,.06-.25,.06-.24,.07-.24,.06-.25,.06-.24,.07-.23,.06-.24,.06-.24,.07-.23,.06-.23,.06-.23,.07-.22,.06-.23,.06-.22,.07-.22,.06-.22,.07-.21,.06-.21,.06-.21,.07-.21,.06-.2,.06-.21,.07-.19,.06-.2,.06-.19,.07-.19,.06-.19,.06-.18,.07-.18,.06-.18,.06-.17,.07-.18,.06-.16,.06-.17,.07-.16,.06-.15,.06-.16,.07-.15,.06-.14,.07-.15,.06-.13,.06-.13,.07-.13,.06-.13,.06-.12,.07-.12,.06-.11,.06-.1,.07-.11,.06-.09,.06-.1,.07-.09,.06-.08,.06-.08,.07-.08,.06-.07,.06-.06,.07-.06,.06-.06,.07-.05,.06-.04,.06-.04,.07-.04,.06-.03,.06-.02,.07-.02h.06l.06-.02h.19l.07,.03,.06,.02,.06,.03,.07,.03,.06,.04,.06,.04,.07,.05,.06,.06,.07,.06,.06,.07,.06,.07,.07,.08,.06,.08,.06,.1,.07,.1,.06,.1,.06,.11,.07,.12,.06,.12,.06,.13,.07,.13,.06,.14,.06,.15,.07,.15,.06,.16,.06,.17,.07,.17,.06,.18,.06,.18,.07,.19,.06,.19,.07,.2,.06,.21,.06,.21,.07,.22,.06,.23,.06,.23,.07,.23,.06,.24,.06,.25,.07,.25,.06,.26,.06,.27,.07,.27m0,0l.06,.28,.06,.28,.07,.29,.06,.29,.06,.3,.07,.3,.06,.31,.07,.32,.06,.32,.06,.32,.07,.33,.06,.33,.06,.34,.07,.34,.06,.35,.06,.36,.07,.35,.06,.36,.06,.37,.07,.37,.06,.37,.06,.38,.07,.39,.06,.39,.06,.39,.07,.4,.06,.4,.07,.4,.06,.41,.06,.41,.07,.42,.06,.41,.06,.43,.07,.42,.06,.43,.06,.43,.07,.43,.06,.44,.06,.44,.07,.44,.06,.44,.06,.45,.07,.44,.06,.46,.06,.45,.07,.45,.06,.46,.06,.46,.07,.46,.06,.46,.07,.47,.06,.47,.06,.47,.07,.47,.06,.47,.06,.47,.07,.47,.06,.47,.06,.48,.07,.47,.06,.48,.06,.48,.07,.47,.06,.48,.06,.48,.07,.48,.06,.47,.06,.48,.07,.48,.06,.48,.07,.48,.06,.47,.06,.48,.07,.48,.06,.48,.06,.47,.07,.48,.06,.47,.06,.48,.07,.47,.06,.47,.06,.47,.07,.47,.06,.47,.06,.46,.07,.46,.06,.47,.06,.46,.07,.46,.06,.45,.07,.46,.06,.45,.06,.45,.07,.45,.06,.44,.06,.45,.07,.44,.06,.44,.06,.44,.07,.44,.06,.43,.06,.43,.07,.43,.06,.42,.06,.42,.07,.42,.06,.42,.06,.41,.07,.41,.06,.41,.06,.4,.07,.4,.06,.39,.07,.4,.06,.39,.06,.39,.07,.38,.06,.38,.06,.38,.07,.38,.06,.37,.06,.37,.07,.36,.06,.36,.06,.36,.07,.36,.06,.35,.06,.35,.07,.34,.06,.34,.06,.34,.07,.33,.06,.33,.07,.32,.06,.32,.06,.32,.07,.31,.06,.31,.06,.31,.07,.3,.06,.3,.06,.3,.07,.29,.06,.28,.06,.29,.07,.28,.06,.27,.06,.28,.07,.27,.06,.26,.06,.26,.07,.26,.06,.25,.07,.25,.06,.24,.06,.25,.07,.23,.06,.24,.06,.23,.07,.22,.06,.22,.06,.22,.07,.22,.06,.21,.06,.21,.07,.2,.06,.2,.06,.2,.07,.2,.06,.19,.06,.18,.07,.19,.06,.18,.06,.17,.07,.17,.06,.17,.07,.17,.06,.16,.06,.16,.07,.16,.06,.15,.06,.15,.07,.14,.06,.15,.06,.14,.07,.14,.06,.13,.06,.13,.07,.13,.06,.13,.06,.12,.07,.12,.06,.12,.06,.12,.07,.11,.06,.11,.07,.1,.06,.11,.06,.1,.07,.1,.06,.09,.06,.1,.07,.09,.06,.08,.06,.09,.07,.08,.06,.09,.06,.08,.07,.07,.06,.08,.06,.07,.07,.07,.06,.07,.06,.07,.07,.06,.06,.06,.07,.06,.06,.06,.06,.06,.07,.05,.06,.06,.06,.05,.07,.05,.06,.05,.06,.05,.07,.04,.06,.05,.06,.04,.07,.04,.06,.04,.06,.04,.07,.04,.06,.04,.06,.03,.07,.04,.06,.03,.06,.03,.07,.03,.06,.04,.07,.02,.06,.03,.06,.03,.07,.03,.06,.02,.06,.03,.07,.02,.06,.02,.06,.03,.07,.02,.06,.02,.06,.02,.07,.02,.06,.02,.06,.02,.07,.02,.06,.02,.06,.02,.07,.02h.06l.07,.03,.06,.02,.06,.02h.07l.06,.03,.06,.02h.07l.06,.03,.06,.02,.07,.02h.06l.06,.03,.07,.02h.06l.06,.03,.07,.02,.06,.02,.06,.02h.07l.06,.03,.07,.02,.06,.02,.06,.02,.07,.02,.06,.02,.06,.02,.07,.02,.06,.03,.06,.02,.07,.02,.06,.02,.06,.03,.07,.02,.06,.03,.06,.02,.07,.03,.06,.02,.06,.03,.07,.03,.06,.02,.07,.03,.06,.03,.06,.03,.07,.03,.06,.03,.06,.04,.07,.03,.06,.03,.06,.03,.07,.04,.06,.03,.06,.04,.07,.04,.06,.03,.06,.04,.07,.04,.06,.04,.06,.04,.07,.04,.06,.04,.06,.04,.07,.05,.06,.04,.07,.04,.06,.05,.06,.04,.07,.05,.06,.05,.06,.05,.07,.05,.06,.04,.06,.06,.07,.05,.06,.05,.06,.05,.07,.05,.06,.06,.06,.05,.07,.06,.06,.05,.06,.06,.07,.06,.06,.05,.07,.06,.06,.06,.06,.06,.07,.06,.06,.06,.06,.06,.07,.06,.06,.06,.06,.06,.07,.07,.06,.06,.06,.06,.07,.07,.06,.07,.06,.06,.07,.07,.06,.06,.06,.07,.07,.07,.06,.07,.07,.07,.06,.06,.06,.07,.07,.07,.06,.07,.06,.07,.07,.07,.06,.07,.06,.08,.07,.07,.06,.07,.06,.08,.07,.07,.06,.07,.06,.08,.07,.07,.06,.07,.06,.08,.07,.07,.06,.08,.06,.07,.07,.08,.06,.07,.07,.08,.06,.08,.06,.07,.07,.08,.06,.07,.06,.08,.07,.08,.06,.07,.06,.08,.07,.08,.06,.08,.06,.07,.07,.08,.06,.08,.06,.08,.07,.07,.06,.08,.06,.08,.07,.08,.06,.07,.07,.08,.06,.08,.06,.07,.07,.08,.06,.08,.06,.07,.07,.07,.06,.08,.06,.07,.07,.08,.06,.07,.06,.08,.07,.07,.06,.08,.06,.07,.07,.07,.06,.07,.06,.08,.07,.07,.06,.07,.07,.08,.06,.07,.06,.07,.07,.07,.06,.07,.06,.07,.07,.07,.06,.07,.06,.07,.07,.07,.06,.07,.06,.07,.07,.07,.06,.06,.06,.07,.07,.07,.06,.07,.06,.06,.07,.07,.06,.06,.06,.07,.07,.06,.06,.07,.07,.06,.06,.06,.06,.07,.07,.06,.06,.06,.06,.06,.07,.06,.06,.06,.06,.06,.07,.06,.06,.05,.06,.06,.07,.06,.06,.06,.06,.05,.07,.06,.06,.05,.06,.05,.07,.06,.06,.05,.07,.05,.06,.05,.06,.05,.07,.05,.06,.05,.06,.05,.07,.04,.06,.05,.06,.05,.07,.04,.06,.05,.06,.04,.07,.04,.06,.05,.06,.04,.07,.04,.06,.04,.06,.04,.07,.04,.06,.04,.07,.03,.06,.04,.06,.04,.07,.03,.06,.04,.06,.03,.07,.04,.06,.03,.06,.03,.07,.03,.06,.03,.06,.03,.07,.02,.06,.03,.06,.02,.07,.03,.06,.02,.06,.03,.07,.02,.06,.02,.06,.02,.07,.02,.06,.02,.07,.02,.06,.02h.06l.07,.03,.06,.02h.06l.07,.03h.06l.06,.02,.07,.02h.06l.06,.02h.07l.06,.02h.06l.07,.02h.06l.06,.02h.13l.07,.02h.12l.07,.02h.12l.07,.02h.12l.07,.02h.12l.07,.02h.12l.07,.02h.06l.06,.02h.07l.06,.02h.13l.06,.02h.07l.06,.03h.06l.07,.02h.06l.06,.02,.07,.02h.06l.06,.02,.07,.02h.06l.06,.03h.07l.06,.03h.06l.07,.03,.06,.02,.06,.02h.07l.06,.03,.07,.02,.06,.02,.06,.02,.07,.02,.06,.03,.06,.02,.07,.02,.06,.02,.06,.03,.07,.02,.06,.02,.06,.03,.07,.02,.06,.02,.06,.03,.07,.02,.06,.02,.06,.03,.07,.02,.06,.03,.07,.02,.06,.03,.06,.02,.07,.03,.06,.02,.06,.03,.07,.02,.06,.03,.06,.02,.07,.03,.06,.02,.06,.02,.07,.03,.06,.02,.06,.02,.07,.03,.06,.02,.06,.02,.07,.02,.06,.02,.07,.02,.06,.03,.06,.02,.07,.02,.06,.02,.06,.02,.07,.02,.06,.02,.06,.02,.07,.02,.06,.02,.06,.02,.07,.02,.06,.02,.06,.02h.07l.06,.03,.06,.02h.07l.06,.03h.06l.07,.03h.06l.07,.02,.06,.02h.06l.07,.03h.06l.06,.02,.07,.02h.06l.06,.02,.07,.02h.06l.06,.02,.07,.02h.06l.06,.02h.07l.06,.03h.06l.07,.02h.06l.07,.02h.06l.06,.02h.07l.06,.02h.06l.07,.02h.06l.06,.02h.13l.06,.02h.13l.06,.02h.13l.06,.02h.2l.06,.02h.25l.07,.02h.38l.06,.02h.7l.06-.02h.13l.06-.02h.13l.06-.02h.07l.06-.02h.13l.06-.02,.06-.02h.07l.06-.02,.06-.02h.07l.06-.03h.07l.06-.03,.06-.02,.07-.02,.06-.02,.06-.02,.07-.03,.06-.02,.06-.02,.07-.03,.06-.02,.06-.03,.07-.03,.06-.03,.06-.03,.07-.03,.06-.03,.06-.04,.07-.03,.06-.04,.07-.04,.06-.03,.06-.04,.07-.04,.06-.05,.06-.04,.07-.05,.06-.04,.06-.05,.07-.04,.06-.05,.06-.05,.07-.05,.06-.05,.06-.05,.07-.05,.06-.05,.06-.05,.07-.06,.06-.05,.06-.05,.07-.05,.06-.05,.07-.06,.06-.05,.06-.05,.07-.05,.06-.05,.06-.05,.07-.05,.06-.05,.06-.05,.07-.05,.06-.04,.06-.05,.07-.05,.06-.04,.06-.04,.07-.05,.06-.04,.06-.03,.07-.04,.06-.04,.07-.04,.06-.03,.06-.03,.07-.03,.06-.03,.06-.03,.07-.02,.06-.02,.06-.02,.07-.02,.06-.02h.06l.07-.03h.06l.06-.02h.51l.07,.02h.06l.06,.02,.07,.02,.06,.02,.06,.02,.07,.02,.06,.02,.06,.02,.07,.03,.06,.03,.06,.03,.07,.03,.06,.03,.06,.03,.07,.03,.06,.04,.06,.03,.07,.04,.06,.04,.07,.03,.06,.04,.06,.04,.07,.04,.06,.04,.06,.04,.07,.04,.06,.03,.06,.04,.07,.04,.06,.04,.06,.04,.07,.04,.06,.04,.06,.03,.07,.04,.06,.04,.06,.03,.07,.04,.06,.03,.07,.04,.06,.03,.06,.04,.07,.03,.06,.03,.06,.03,.07,.03,.06,.03,.06,.03,.07,.03,.06,.03,.06,.02,.07,.03,.06,.02,.06,.03,.07,.02,.06,.02,.06,.02,.07,.02,.06,.02,.07,.02h.06l.06,.03h.07l.06,.02,.06,.02h.07l.06,.02h.06l.07,.02h.12l.07,.02h.12l.07,.02h.19l.06,.02h.32"/><path class="cls-7" d="M41.3,387.71h.57l.06-.02h.45l.06-.02h1.08l.06-.02h.45l.06-.02h.32l.06-.02h.26l.06-.02h.45l.06-.02h.38l.06-.02h.19l.07-.02h.31l.07-.02h.32l.06-.02h.25l.07-.02h.25l.06-.02h.26l.06-.02h.13l.06-.02h.19l.07-.02h.12l.07-.02h.19l.06-.02h.13l.06-.02h.19l.06-.02h.13l.07-.02h.19l.06-.02h.06l.07-.02h.12l.07-.02h.06l.06-.02h.13l.06-.02h.07l.06-.02h.13l.06-.02h.06l.07-.02h.13l.06-.02h.06l.07-.02h.12l.07-.02h.06l.06-.02h.07l.06-.02h.06l.07-.02h.06l.06-.02h.07l.06-.02,.06-.02h.07l.06-.02h.07l.06-.02,.06-.02h.07l.06-.02h.06l.07-.02h.06l.06-.03h.07l.06-.02h.06l.07-.02,.06-.02h.06l.07-.02,.06-.02h.06l.07-.02,.06-.02h.07l.06-.02,.06-.02,.07-.02h.06l.06-.03h.07l.06-.03h.06l.07-.03h.06l.06-.03,.07-.02h.06l.06-.03,.07-.02h.06l.06-.03,.07-.02,.06-.02h.06l.07-.03,.06-.02,.07-.02,.06-.02,.06-.02,.07-.02,.06-.02,.06-.02,.07-.02,.06-.02,.06-.02,.07-.02,.06-.02,.06-.02,.07-.02,.06-.02,.06-.02,.07-.02,.06-.02,.06-.02,.07-.02,.06-.03,.07-.02,.06-.02,.06-.02,.07-.03,.06-.02,.06-.03,.07-.02,.06-.03,.06-.02,.07-.02,.06-.03,.06-.02,.07-.03,.06-.03,.06-.02,.07-.03,.06-.03,.06-.02,.07-.03,.06-.03,.07-.03,.06-.03,.06-.02,.07-.03,.06-.03,.06-.03,.07-.03,.06-.03,.06-.03,.07-.03,.06-.03,.06-.03,.07-.03,.06-.03,.06-.04,.07-.03,.06-.03,.06-.04,.07-.03,.06-.03,.07-.04,.06-.03,.06-.04,.07-.04,.06-.03,.06-.04,.07-.03,.06-.04,.06-.04,.07-.03,.06-.04,.06-.04,.07-.03,.06-.04,.06-.04,.07-.04,.06-.04,.06-.04,.07-.03,.06-.04,.06-.04,.07-.04,.06-.04,.07-.04,.06-.05,.06-.04,.07-.04,.06-.04,.06-.04,.07-.05,.06-.04,.06-.05,.07-.04,.06-.05,.06-.04,.07-.05,.06-.05,.06-.04,.07-.05,.06-.05,.06-.05,.07-.05,.06-.05,.07-.05,.06-.05,.06-.05,.07-.05,.06-.05,.06-.06,.07-.05,.06-.05,.06-.05,.07-.05,.06-.06,.06-.05,.07-.06,.06-.05,.06-.06,.07-.05,.06-.06,.06-.06,.07-.05,.06-.06,.07-.06,.06-.06,.06-.06,.07-.06,.06-.06,.06-.06,.07-.06,.06-.06,.06-.06,.07-.06,.06-.06,.06-.06,.07-.06,.06-.07,.06-.06,.07-.07,.06-.06,.06-.06,.07-.07,.06-.07,.06-.07,.07-.06,.06-.07,.07-.07,.06-.07,.06-.07,.07-.07,.06-.07,.06-.07,.07-.07,.06-.08,.06-.07,.07-.07,.06-.08,.06-.07,.07-.08,.06-.08,.06-.07,.07-.08,.06-.08,.06-.08,.07-.07,.06-.08,.07-.08,.06-.08,.06-.08,.07-.08,.06-.08,.06-.08,.07-.08,.06-.09,.06-.08,.07-.08,.06-.08,.06-.09,.07-.08,.06-.08,.06-.09,.07-.09,.06-.08,.06-.09,.07-.09,.06-.09,.07-.09,.06-.09,.06-.09,.07-.09,.06-.09,.06-.1,.07-.09,.06-.09,.06-.09,.07-.1,.06-.09,.06-.1,.07-.09,.06-.1,.06-.1,.07-.09,.06-.1,.06-.1,.07-.1,.06-.1,.06-.1,.07-.1,.06-.1,.07-.1,.06-.11,.06-.1,.07-.1,.06-.11,.06-.1,.07-.11,.06-.1,.06-.11,.07-.11,.06-.11,.06-.11,.07-.11,.06-.11,.06-.11,.07-.11,.06-.11,.06-.12,.07-.11,.06-.12,.07-.11,.06-.11,.06-.12,.07-.11,.06-.12,.06-.12,.07-.11,.06-.12,.06-.12,.07-.12,.06-.12,.06-.12,.07-.12,.06-.12,.06-.12,.07-.13,.06-.12,.06-.13,.07-.12,.06-.13,.07-.13,.06-.12,.06-.13,.07-.13,.06-.13,.06-.12,.07-.13,.06-.13,.06-.13,.07-.13,.06-.14,.06-.13,.07-.13,.06-.14,.06-.13,.07-.14,.06-.13,.06-.14,.07-.14,.06-.14,.06-.14,.07-.14,.06-.14,.07-.14,.06-.14,.06-.15,.07-.14,.06-.14,.06-.15,.07-.14,.06-.15,.06-.15,.07-.14,.06-.15,.06-.15,.07-.15,.06-.15,.06-.15,.07-.15,.06-.15,.06-.16,.07-.15,.06-.16,.07-.15,.06-.16,.06-.15,.07-.16,.06-.16,.06-.16,.07-.16,.06-.16,.06-.16,.07-.16,.06-.16,.06-.17,.07-.16,.06-.17,.06-.16,.07-.17,.06-.17,.06-.16,.07-.17,.06-.17,.07-.17,.06-.18,.06-.17,.07-.17,.06-.18,.06-.17,.07-.18,.06-.18,.06-.17,.07-.18,.06-.18,.06-.19,.07-.18,.06-.18,.06-.18,.07-.18,.06-.19,.06-.18,.07-.19,.06-.19,.06-.18,.07-.19,.06-.19,.07-.19,.06-.19,.06-.19,.07-.19,.06-.2,.06-.19,.07-.2,.06-.2,.06-.19,.07-.2,.06-.2,.06-.21,.07-.2,.06-.2,.06-.21,.07-.2,.06-.21,.06-.21,.07-.21,.06-.21,.07-.21,.06-.21,.06-.21,.07-.21,.06-.21,.06-.22,.07-.21,.06-.22,.06-.21,.07-.22,.06-.22,.06-.22,.07-.22,.06-.22,.06-.23,.07-.22,.06-.23,.06-.22,.07-.23,.06-.23,.07-.24,.06-.23,.06-.23,.07-.23,.06-.24,.06-.24,.07-.23,.06-.24,.06-.24,.07-.24,.06-.24,.06-.24,.07-.24,.06-.25,.06-.25,.07-.24,.06-.25,.06-.25,.07-.25,.06-.26,.06-.25,.07-.26,.06-.26,.07-.25,.06-.26,.06-.27,.07-.26,.06-.26,.06-.27,.07-.27,.06-.26,.06-.27,.07-.27,.06-.27,.06-.27,.07-.28,.06-.27,.06-.28,.07-.28,.06-.27,.06-.28,.07-.28,.06-.28,.07-.28,.06-.28,.06-.29,.07-.28,.06-.29,.06-.29,.07-.29,.06-.29,.06-.29,.07-.3,.06-.29,.06-.3,.07-.3,.06-.3,.06-.3,.07-.3,.06-.31,.06-.3,.07-.31,.06-.31,.07-.31,.06-.31,.06-.31,.07-.31,.06-.32,.06-.31,.07-.32,.06-.31,.06-.32,.07-.32,.06-.32,.06-.32,.07-.32,.06-.32,.06-.32,.07-.32,.06-.33,.06-.33,.07-.32,.06-.33,.06-.33,.07-.33,.06-.33,.07-.34,.06-.33,.06-.34,.07-.33,.06-.34,.06-.33,.07-.34,.06-.34,.06-.33,.07-.34,.06-.34,.06-.34,.07-.34,.06-.34,.06-.34,.07-.34,.06-.34,.06-.35,.07-.34,.06-.34,.07-.35,.06-.34,.06-.35,.07-.34,.06-.35,.06-.35,.07-.34,.06-.34,.06-.35,.07-.34,.06-.35,.06-.34,.07-.34,.06-.34,.06-.34,.07-.34,.06-.34,.06-.34,.07-.34,.06-.33,.07-.34,.06-.33,.06-.34,.07-.33,.06-.33,.06-.33,.07-.33,.06-.33,.06-.33,.07-.32,.06-.32,.06-.33,.07-.32,.06-.32,.06-.31,.07-.32,.06-.31,.06-.31,.07-.3,.06-.31,.06-.3,.07-.3,.06-.3,.07-.29,.06-.29,.06-.29,.07-.29,.06-.28,.06-.28,.07-.27,.06-.28,.06-.27,.07-.26,.06-.27,.06-.25,.07-.26,.06-.25,.06-.25,.07-.24,.06-.24,.06-.24,.07-.23,.06-.22,.07-.23,.06-.22,.06-.21,.07-.21,.06-.2,.06-.2,.07-.19,.06-.19,.06-.19,.07-.17,.06-.18,.06-.17,.07-.16,.06-.15,.06-.15,.07-.15,.06-.14,.06-.13,.07-.13,.06-.12,.07-.11,.06-.11,.06-.1,.07-.1,.06-.09,.06-.08,.07-.08,.06-.07,.06-.06,.07-.06,.06-.05,.06-.05,.07-.04,.06-.03,.06-.02,.07-.02h.25l.06,.02,.07,.03,.06,.03,.07,.04,.06,.05,.06,.05,.07,.06,.06,.07,.06,.08,.07,.08,.06,.09,.06,.1,.07,.1,.06,.12,.06,.11,.07,.13,.06,.14,.06,.14,.07,.14,.06,.16,.06,.16,.07,.17,.06,.18,.07,.18,.06,.19,.06,.2,.07,.21,.06,.21,.06,.22,.07,.23,.06,.24,.06,.24,.07,.25,.06,.25,.06,.26,.07,.27,.06,.28,.06,.28,.07,.29,.06,.29,.06,.3,.07,.3,.06,.32,.07,.31,.06,.33,.06,.33,.07,.34,.06,.34,.06,.35,.07,.35,.06,.36,.06,.36,.07,.38,.06,.37,.06,.39,.07,.39,.06,.39,.06,.4,.07,.4,.06,.41,.06,.41,.07,.42,.06,.42,.06,.43,.07,.43,.06,.43,.07,.44,.06,.45,.06,.44,.07,.45,.06,.46,.06,.46,.07,.46,.06,.46,.06,.47,.07,.47,.06,.47,.06,.48,.07,.48,.06,.48,.06,.49,.07,.49,.06,.49,.06,.49,.07,.49,.06,.5,.07,.5,.06,.49,.06,.5,.07,.51,.06,.5,.06,.5,.07,.51,.06,.51,.06,.51,.07,.5,.06,.51,.06,.51,.07,.52,.06,.51,.06,.51,.07,.51,.06,.51,.06,.51,.07,.52,.06,.51,.07,.51,.06,.51,.06,.51,.07,.5,.06,.51,.06,.51,.07,.51,.06,.5,.06,.51,.07,.5,.06,.5,.06,.5,.07,.5,.06,.5,.06,.5,.07,.5,.06,.49,.06,.49,.07,.49,.06,.49,.06,.49,.07,.48,.06,.48,.07,.48,.06,.47,.06,.48,.07,.47,.06,.46,.06,.47,.07,.46,.06,.46,.06,.46,.07,.45,.06,.45,.06,.45,.07,.44,.06,.45,.06,.44,.07,.43,.06,.43,.06,.43,.07,.43,.06,.42,.07,.42,.06,.41,.06,.41,.07,.41,.06,.4,.06,.4,.07,.39,.06,.39,.06,.39,.07,.38,.06,.38,.06,.38,.07,.37,.06,.36,.06,.37,.07,.36,.06,.36,.06,.35,.07,.35,.06,.34,.07,.34,.06,.34,.06,.33,.07,.33,.06,.32,.06,.32,.07,.32,.06,.31,.06,.31,.07,.31,.06,.3,.06,.29,.07,.29,.06,.29,.06,.28,.07,.28,.06,.28,.06,.27,.07,.27,.06,.26,.06,.26,.07,.25,.06,.25,.07,.25,.06,.24,.06,.24,.07,.24,.06,.23,.06,.22,.07,.23,.06,.22,.06,.21,.07,.21,.06,.21,.06,.2,.07,.2m0,0l.06,.2,.06,.19,.07,.19,.06,.18,.06,.19,.07,.17,.06,.18,.07,.17,.06,.17,.06,.16,.07,.16,.06,.16,.06,.15,.07,.15,.06,.15,.06,.15,.07,.14,.06,.13,.06,.14,.07,.13,.06,.13,.06,.12,.07,.12,.06,.12,.06,.12,.07,.11,.06,.12,.07,.1,.06,.11,.06,.1,.07,.1,.06,.1,.06,.09,.07,.09,.06,.09,.06,.09,.07,.08,.06,.08,.06,.08,.07,.07,.06,.08,.06,.07,.07,.07,.06,.06,.06,.07,.07,.06,.06,.06,.06,.06,.07,.05,.06,.06,.07,.05,.06,.05,.06,.05,.07,.05,.06,.04,.06,.05,.07,.04,.06,.04,.06,.04,.07,.04,.06,.04,.06,.03,.07,.04,.06,.03,.06,.03,.07,.03,.06,.03,.06,.03,.07,.03,.06,.02,.07,.03,.06,.02,.06,.02,.07,.02,.06,.02,.06,.02,.07,.02h.06l.06,.03,.07,.02h.06l.06,.02,.07,.02h.06l.06,.02,.07,.02h.06l.06,.02h.07l.06,.02h.07l.06,.02h.06l.07,.02h.06l.06,.02h.07l.06,.02h.13l.06,.02h.06l.07,.02h.06l.06,.02h.13l.06,.02h.07l.06,.02h.06l.07,.02h.06l.07,.02h.06l.06,.02,.07,.02h.06l.06,.02h.07l.06,.03h.06l.07,.02,.06,.02h.06l.07,.03h.06l.06,.03h.07l.06,.03,.06,.02h.07l.06,.03,.07,.02,.06,.02,.06,.02,.07,.02,.06,.02,.06,.03,.07,.02,.06,.02,.06,.03,.07,.02,.06,.03,.06,.02,.07,.03,.06,.03,.06,.03,.07,.03,.06,.03,.06,.03,.07,.03,.06,.03,.07,.04,.06,.03,.06,.04,.07,.03,.06,.04,.06,.03,.07,.04,.06,.04,.06,.04,.07,.04,.06,.04,.06,.04,.07,.04,.06,.05,.06,.04,.07,.04,.06,.05,.06,.04,.07,.04,.06,.05,.06,.05,.07,.04,.06,.05,.07,.05,.06,.05,.06,.05,.07,.05,.06,.05,.06,.05,.07,.05,.06,.06,.06,.05,.07,.05,.06,.06,.06,.05,.07,.06,.06,.05,.06,.06,.07,.06,.06,.06,.06,.05,.07,.06,.06,.06,.07,.06,.06,.06,.06,.06,.07,.06,.06,.06,.06,.07,.07,.06,.06,.06,.06,.06,.07,.07,.06,.06,.06,.06,.07,.07,.06,.06,.06,.06,.07,.07,.06,.07,.06,.06,.07,.07,.06,.06,.07,.07,.06,.07,.06,.06,.07,.07,.06,.07,.06,.07,.07,.06,.06,.07,.06,.07,.07,.06,.06,.07,.06,.07,.07,.07,.06,.06,.06,.07,.07,.07,.06,.06,.06,.07,.07,.07,.06,.06,.06,.07,.07,.07,.06,.06,.07,.07,.06,.07,.06,.07,.07,.06,.06,.07,.06,.07,.07,.07,.06,.06,.06,.07,.07,.07,.06,.06,.06,.07,.07,.07,.06,.06,.06,.07,.07,.06,.06,.07,.06,.06,.07,.07,.06,.06,.07,.07,.06,.06,.06,.07,.07,.06,.06,.06,.06,.07,.07,.06,.06,.06,.06,.06,.07,.07,.06,.06,.06,.06,.07,.06,.06,.06,.06,.06,.07,.05,.06,.06,.06,.06,.07,.06,.06,.06,.07,.06,.06,.05,.06,.06,.07,.06,.06,.05,.06,.06,.07,.05,.06,.06,.06,.05,.07,.06,.06,.05,.06,.05,.07,.06,.06,.05,.06,.05,.07,.05,.06,.06,.06,.05,.07,.04,.06,.05,.07,.05,.06,.05,.06,.05,.07,.05,.06,.05,.06,.04,.07,.05,.06,.05,.06,.05,.07,.04,.06,.05,.06,.04,.07,.05,.06,.04,.06,.05,.07,.04,.06,.04,.06,.04,.07,.05,.06,.04,.06,.04,.07,.04,.06,.04,.07,.03,.06,.04,.06,.04,.07,.04,.06,.04,.06,.04,.07,.04,.06,.03,.06,.04,.07,.04,.06,.04,.06,.03,.07,.04,.06,.03,.06,.04,.07,.03,.06,.03,.06,.04,.07,.03,.06,.03,.07,.03,.06,.03,.06,.03,.07,.03,.06,.03,.06,.03,.07,.03,.06,.03,.06,.03,.07,.03,.06,.02,.06,.03,.07,.03,.06,.03,.06,.03,.07,.02,.06,.03,.06,.02,.07,.03,.06,.03,.07,.02,.06,.03,.06,.02,.07,.02,.06,.03,.06,.02,.07,.02,.06,.03,.06,.02,.07,.02,.06,.02,.06,.03,.07,.02,.06,.02,.06,.02,.07,.02,.06,.02,.06,.02,.07,.02,.06,.02,.06,.02h.07l.06,.03,.07,.02,.06,.02,.06,.02h.07l.06,.03h.06l.07,.03,.06,.02h.06l.07,.02,.06,.02h.06l.07,.03h.06l.06,.03h.07l.06,.02,.06,.02h.07l.06,.02,.07,.02h.06l.06,.02h.07l.06,.02h.06l.07,.02h.06l.06,.02,.07,.02h.06l.06,.02h.13l.06,.02h.07l.06,.02h.13l.06,.02h.13l.06,.02h.51l.06,.02h.7l.07-.02h.19l.06-.02h.13l.06-.02h.06l.07-.02h.12l.07-.02h.06l.06-.03h.07l.06-.02h.06l.07-.03h.06l.07-.02,.06-.02h.06l.07-.03h.06l.06-.03h.07l.06-.03,.06-.02h.07l.06-.03,.06-.02h.07l.06-.03,.06-.02h.07l.06-.03,.06-.02h.07l.06-.03,.07-.02,.06-.02h.06l.07-.03,.06-.02h.06l.07-.03,.06-.02h.06l.07-.03h.06l.06-.02,.07-.02h.06l.06-.02h.07l.06-.02h.06l.07-.02h.06l.06-.02h.13l.07-.02h.19l.06-.02h.57l.06,.02h.13l.06,.02h.13l.07,.02,.06,.02h.06l.07,.02h.06l.06,.02h.07l.06,.02,.06,.02h.07l.06,.02h.06l.07,.03h.06l.06,.02,.07,.02h.06l.06,.03h.07l.06,.03h.07l.06,.03h.06l.07,.03h.06l.06,.03h.07l.06,.02,.06,.02h.07l.06,.03,.06,.02h.07l.06,.03h.06l.07,.03h.06l.06,.03h.07l.06,.03h.06l.07,.03h.06l.07,.03h.06l.06,.03h.07l.06,.03h.06l.07,.02h.06l.06,.03h.07l.06,.02h.06l.07,.03h.06l.06,.02h.07l.06,.02,.06,.02h.07l.06,.02h.07l.06,.02h.06l.07,.02h.06l.06,.02h.07l.06,.02h.13l.06,.02h.06l.07,.02h.06l.06,.02h.13l.06,.02h.13l.07,.02h.12l.07,.02h.19l.06,.02h.19l.06,.02h.19l.07,.02h.38l.06,.02h.89l.06-.02h.26l.06-.02h.19l.07-.02h.12l.07-.02h.06l.06-.02h.07l.06-.03h.06l.07-.02,.06-.02,.06-.02h.07l.06-.03,.06-.02,.07-.02,.06-.02,.07-.02,.06-.03,.06-.02,.07-.02,.06-.03,.06-.03,.07-.02,.06-.03,.06-.04,.07-.03,.06-.03,.06-.03,.07-.04,.06-.03,.06-.04,.07-.04,.06-.04,.06-.04,.07-.04,.06-.05,.06-.04,.07-.05,.06-.05,.07-.05,.06-.05,.06-.05,.07-.05,.06-.05,.06-.06,.07-.05,.06-.06,.06-.05,.07-.06,.06-.06,.06-.05,.07-.06,.06-.06,.06-.06,.07-.06,.06-.06,.06-.06,.07-.05,.06-.06,.07-.06,.06-.06,.06-.06,.07-.06,.06-.05,.06-.06,.07-.06,.06-.05,.06-.05,.07-.06,.06-.05,.06-.05,.07-.05,.06-.04,.06-.05,.07-.05,.06-.04,.06-.04,.07-.04,.06-.03,.07-.04,.06-.03,.06-.03,.07-.03,.06-.02,.06-.02,.07-.02,.06-.02,.06-.02h.07l.06-.02h.06l.07-.02h.38l.06,.02h.06l.07,.02,.06,.02h.07l.06,.03,.06,.02,.07,.03,.06,.02,.06,.03,.07,.03,.06,.03,.06,.03,.07,.03,.06,.03,.06,.04,.07,.04,.06,.03,.06,.04,.07,.04,.06,.04,.06,.04,.07,.04,.06,.05,.07,.04,.06,.04,.06,.05,.07,.04,.06,.05,.06,.04,.07,.05,.06,.04,.06,.05,.07,.04,.06,.04,.06,.05,.07,.04,.06,.04,.06,.04,.07,.04,.06,.04,.06,.04,.07,.04,.06,.04,.07,.04,.06,.03,.06,.04,.07,.03,.06,.03,.06,.04,.07,.03,.06,.03,.06,.03,.07,.02,.06,.03,.06,.03,.07,.02,.06,.02,.06,.03,.07,.02h.06l.06,.03,.07,.02,.06,.02h.06l.07,.03h.06l.07,.02,.06,.02h.06l.07,.02,.06,.02h.06l.07,.02h.12l.07,.02h.06l.06,.02h.19l.07,.02h.25l.07,.02h.25l.06,.02h.13l.06,.02h.13l.06,.02h.13l.06,.02h.07l.06,.02h.06l.07,.02h.06l.07,.03h.06l.06,.02h.07l.06,.03h.06l.07,.03,.06,.02h.06l.07,.03,.06,.02,.06,.02h.07l.06,.03,.06,.02,.07,.02,.06,.02,.06,.02,.07,.02,.06,.02,.06,.02,.07,.02,.06,.02,.07,.02,.06,.02"/><path class="cls-3" d="M52.03,387.82h.13l.06-.02h.63l.07-.02h.06l.06-.03h.13l.07-.02h.06l.06-.02,.07-.02,.06-.02h.06l.07-.02h.06l.06-.02h.07l.06-.02h.06l.07-.03h.06l.06-.02h.13l.06-.03,.07-.02,.06-.02h.06l.07-.02h.13l.06-.02,.06-.02,.07-.02h.06l.06-.02h.07l.06-.02h.06l.07-.02,.06-.02h.06l.07-.02h.06l.06-.02h.07l.06-.02,.06-.02h.07l.06-.03h.07l.06-.02h.06l.07-.02,.06-.02,.06-.03,.07-.02,.06-.02,.06-.02,.07-.02,.06-.03,.06-.03,.07-.04,.06-.03,.06-.03,.07-.02,.06-.02,.06-.02,.07-.02,.06-.02,.07-.03,.06-.02,.06-.02,.07-.02,.06-.02,.06-.02,.07-.02,.06-.03,.06-.02,.07-.03,.06-.02,.06-.02,.07-.02,.06-.03,.06-.04,.07-.04,.06-.04,.06-.03,.07-.03,.06-.03,.07-.03,.06-.04,.06-.03,.07-.04,.06-.03,.06-.02,.07-.03,.06-.02,.06-.02,.07-.03,.06-.03,.06-.02,.07-.03,.06-.02,.06-.02,.07-.03,.06-.03,.06-.04,.07-.04,.06-.03,.06-.03,.07-.03,.06-.03,.07-.04,.06-.04,.06-.04,.07-.04,.06-.04,.06-.04,.07-.03,.06-.03,.06-.04,.07-.04,.06-.04,.06-.04,.07-.02,.06-.03,.06-.04,.07-.04,.06-.05,.06-.05,.07-.05,.06-.04,.07-.05,.06-.04,.06-.05,.07-.06,.06-.05,.06-.06,.07-.05,.06-.04,.06-.05,.07-.05,.06-.05,.06-.06,.07-.05,.06-.05,.06-.04,.07-.05,.06-.04,.06-.05,.07-.04,.06-.05,.07-.05,.06-.04,.06-.04,.07-.04,.06-.04,.06-.04,.07-.05,.06-.05,.06-.04,.07-.05,.06-.04,.06-.06,.07-.05,.06-.06,.06-.06,.07-.07,.06-.06,.06-.05,.07-.07,.06-.06,.06-.06,.07-.07,.06-.07,.07-.06,.06-.06,.06-.06,.07-.06,.06-.06,.06-.07,.07-.07,.06-.06,.06-.07,.07-.06,.06-.06,.06-.07,.07-.06,.06-.07,.06-.07,.07-.06,.06-.07,.06-.06,.07-.07,.06-.07,.07-.07,.06-.08,.06-.07,.07-.07,.06-.07,.06-.07,.07-.08,.06-.08,.06-.08,.07-.07,.06-.08,.06-.07,.07-.07,.06-.08,.06-.08,.07-.07,.06-.08,.06-.07,.07-.07,.06-.08,.07-.07,.06-.08,.06-.08,.07-.09,.06-.09,.06-.08,.07-.09,.06-.09,.06-.09,.07-.09,.06-.1,.06-.09,.07-.09,.06-.08,.06-.09,.07-.08,.06-.09,.06-.09,.07-.09,.06-.08,.06-.09,.07-.09,.06-.09,.07-.1,.06-.09,.06-.1,.07-.1,.06-.11,.06-.1,.07-.1,.06-.1,.06-.11,.07-.12,.06-.1,.06-.11,.07-.11,.06-.1,.06-.11,.07-.1,.06-.11,.06-.1,.07-.1,.06-.1,.07-.1,.06-.09,.06-.1,.07-.1,.06-.1,.06-.11,.07-.11,.06-.1,.06-.1,.07-.1,.06-.11,.06-.11,.07-.12,.06-.11,.06-.11,.07-.11,.06-.12,.06-.11,.07-.12,.06-.12,.07-.12,.06-.13,.06-.12,.07-.11,.06-.13,.06-.13,.07-.13,.06-.13,.06-.13,.07-.13,.06-.11,.06-.12,.07-.12,.06-.12,.06-.12,.07-.13,.06-.12,.06-.12,.07-.12,.06-.11,.06-.13,.07-.12,.06-.13,.07-.13,.06-.12,.06-.12,.07-.13,.06-.13,.06-.14,.07-.14,.06-.14,.06-.14,.07-.13,.06-.13,.06-.13,.07-.14,.06-.15,.06-.14,.07-.14,.06-.13,.06-.13,.07-.14,.06-.13,.07-.14,.06-.14,.06-.15,.07-.14,.06-.13,.06-.14,.07-.15,.06-.14,.06-.15,.07-.16,.06-.15,.06-.14,.07-.14,.06-.15,.06-.15,.07-.16,.06-.15,.06-.15,.07-.15,.06-.16,.07-.15,.06-.16,.06-.16,.07-.16,.06-.16,.06-.16,.07-.15,.06-.15,.06-.15,.07-.16,.06-.16,.06-.16,.07-.16,.06-.16,.06-.15,.07-.15,.06-.16,.06-.15,.07-.16,.06-.16,.06-.16,.07-.16,.06-.16,.07-.17,.06-.17,.06-.17,.07-.18,.06-.17,.06-.17,.07-.17,.06-.17,.06-.17,.07-.17,.06-.18,.06-.18,.07-.17,.06-.16,.06-.16,.07-.16,.06-.17,.06-.16,.07-.17,.06-.16,.07-.17,.06-.17,.06-.17,.07-.18,.06-.18,.06-.18,.07-.17,.06-.18,.06-.18,.07-.18,.06-.17,.06-.19,.07-.18,.06-.19,.06-.19,.07-.18,.06-.19,.06-.18,.07-.19,.06-.18,.07-.19,.06-.18,.06-.17,.07-.19,.06-.17,.06-.19,.07-.19,.06-.19,.06-.19,.07-.19,.06-.18,.06-.18,.07-.19,.06-.18,.06-.19,.07-.19,.06-.19,.06-.18,.07-.18,.06-.19,.06-.19,.07-.19,.06-.19,.07-.18,.06-.18,.06-.18,.07-.18,.06-.18,.06-.19,.07-.19,.06-.19,.06-.18,.07-.18,.06-.19,.06-.19,.07-.19,.06-.19,.06-.19,.07-.2,.06-.19,.06-.2,.07-.19,.06-.19,.07-.21,.06-.2,.06-.2,.07-.2,.06-.19,.06-.19,.07-.2,.06-.2,.06-.2,.07-.19,.06-.19,.06-.18,.07-.19,.06-.19,.06-.2,.07-.19,.06-.19,.06-.2,.07-.19,.06-.19,.07-.19,.06-.19,.06-.19,.07-.19,.06-.2,.06-.2,.07-.19,.06-.19,.06-.2,.07-.2,.06-.2,.06-.21,.07-.19,.06-.2,.06-.19,.07-.19,.06-.2,.06-.2,.07-.2,.06-.21,.06-.2,.07-.2,.06-.19,.07-.19,.06-.2,.06-.21,.07-.21,.06-.2,.06-.2,.07-.2,.06-.2,.06-.2,.07-.21,.06-.21,.06-.21,.07-.21,.06-.21,.06-.2,.07-.2,.06-.21,.06-.21,.07-.21,.06-.21,.07-.19,.06-.2,.06-.19,.07-.2,.06-.2,.06-.2,.07-.2,.06-.2,.06-.2,.07-.2,.06-.2,.06-.21,.07-.21,.06-.21,.06-.21,.07-.2,.06-.2,.06-.2,.07-.2,.06-.21,.07-.21,.06-.2,.06-.2,.07-.19,.06-.19,.06-.2,.07-.2,.06-.19,.06-.2,.07-.2,.06-.19,.06-.18,.07-.19,.06-.19,.06-.2,.07-.19,.06-.19,.06-.19,.07-.18,.06-.19,.06-.18,.07-.2,.06-.18,.07-.2,.06-.18,.06-.19,.07-.19,.06-.19,.06-.19,.07-.2,.06-.2,.06-.2,.07-.19,.06-.19,.06-.19,.07-.19,.06-.19,.06-.2,.07-.2,.06-.18,.06-.19,.07-.18,.06-.19,.07-.18,.06-.2,.06-.19,.07-.19,.06-.18,.06-.19,.07-.18,.06-.19,.06-.19,.07-.19,.06-.19,.06-.17,.07-.18,.06-.17,.06-.17,.07-.19,.06-.18,.06-.18,.07-.18,.06-.18,.07-.17,.06-.19,.06-.18,.07-.19,.06-.19,.06-.18,.07-.17,.06-.18,.06-.17,.07-.18,.06-.17,.06-.18,.07-.18,.06-.17,.06-.17,.07-.16,.06-.16,.06-.18,.07-.17,.06-.17,.06-.18,.07-.16,.06-.16,.07-.17,.06-.17,.06-.17,.07-.18,.06-.17,.06-.17,.07-.17,.06-.17,.06-.18,.07-.17,.06-.17,.06-.18,.07-.17,.06-.15,.06-.16,.07-.15,.06-.16,.06-.15,.07-.16,.06-.15,.07-.16,.06-.15,.06-.15,.07-.14,.06-.15,.06-.16,.07-.16,.06-.15,.06-.15,.07-.15,.06-.15,.06-.17,.07-.16,.06-.17,.06-.16,.07-.15,.06-.15,.06-.15,.07-.16,.06-.16,.07-.15,.06-.16,.06-.15,.07-.14,.06-.14,.06-.14,.07-.14,.06-.14,.06-.15,.07-.14,.06-.13,.06-.13,.07-.14,.06-.13,.06-.14,.07-.13,.06-.14,.06-.12,.07-.12,.06-.12,.06-.12,.07-.13,.06-.12,.07-.13,.06-.14,.06-.12,.07-.13,.06-.12,.06-.13,.07-.13,.06-.14,.06-.13,.07-.13,.06-.13,.06-.13,.07-.13,.06-.13,.06-.13,.07-.13,.06-.12,.06-.12,.07-.12,.06-.12,.07-.11,.06-.12,.06-.12,.07-.11,.06-.11,.06-.1,.07-.1,.06-.11,.06-.11,.07-.11,.06-.11,.06-.11,.07-.1,.06-.1,.06-.11,.07-.11,.06-.12,.06-.11,.07-.11,.06-.11,.07-.1,.06-.1,.06-.11,.07-.11,.06-.11,.06-.1,.07-.09,.06-.09,.06-.09,.07-.1,.06-.09,.06-.1,.07-.1,.06-.09,.06-.08,.07-.08,.06-.07,.06-.09,.07-.09,.06-.09,.06-.09,.07-.08,.06-.07,.07-.08,.06-.08,.06-.09,.07-.1,.06-.08,.06-.08,.07-.07,.06-.07,.06-.07,.07-.08,.06-.07,.06-.08,.07-.07,.06-.07,.06-.06,.07-.06,.06-.07,.06-.07,.07-.07,.06-.06,.07-.06,.06-.06,.06-.05,.07-.06,.06-.07,.06-.07,.07-.07,.06-.07,.06-.06,.07-.05,.06-.06,.06-.05,.07-.06,.06-.06,.06-.06,.07-.04,.06-.04,.06-.05,.07-.04,.06-.05,.07-.05,.06-.04,.06-.04,.07-.04,.06-.04,.06-.04,.07-.04,.06-.04,.06-.04,.07-.04,.06-.03,.06-.02,.07-.02,.06-.02,.06-.02,.07-.04,.06-.02,.06-.02,.07-.02,.06-.03,.06-.02,.07-.03,.06-.03,.07-.03,.06-.03,.06-.03,.07-.03,.06-.03,.06-.02,.07-.03,.06-.04,.06-.03,.07-.03,.06-.03,.06-.02,.07-.02,.06-.03,.06-.03,.07-.02,.06-.02h.06l.07-.02h.06l.07-.03h.06l.06-.02h.51l.06,.03,.07,.02,.06,.02,.06,.02,.07,.02h.06l.06,.03,.07,.02,.06,.02,.07,.02,.06,.02,.06,.02,.07,.02h.06l.06,.03,.07,.03,.06,.03,.06,.02,.07,.03,.06,.03,.06,.02,.07,.02,.06,.02,.06,.02,.07,.03,.06,.03,.06,.02h.07l.06,.03,.06,.02,.07,.02,.06,.02,.07,.02,.06,.03,.06,.02h.13l.06,.02h.13l.06,.02h.64l.06,.04,.07,.02,.06,.04,.06,.05,.07,.04,.06,.06,.06,.05,.07,.06,.06,.06,.06,.07,.07,.08,.06,.08,.06,.09,.07,.09,.06,.09,.06,.09,.07,.09,.06,.1,.06,.11,.07,.1,.06,.11,.07,.11,.06,.11,.06,.12,.07,.12,.06,.12,.06,.13,.07,.11,.06,.12,.06,.11,.07,.1,.06,.1,.06,.1,.07,.1,.06,.09,.06,.1,.07,.08,.06,.08,.06,.07,.07,.07,.06,.07,.06,.06,.07,.06,.06,.05,.07,.04,.06,.04,.06,.03,.07,.03,.06,.03h.06l.07,.02h.76l.06,.02,.07,.02,.06,.02,.06,.02,.07,.03,.06,.04,.06,.05,.07,.06,.06,.06,.06,.07,.07,.07,.06,.09,.06,.1,.07,.12,.06,.12,.06,.13,.07,.14,.06,.15,.06,.15,.07,.17,.06,.17,.07,.19,.06,.2,.06,.2,.07,.21,.06,.2,.06,.21,.07,.22,.06,.23,.06,.24,.07,.24,.06,.24,.06,.24,.07,.24,.06,.25,.06,.24,.07,.25m0,0l.06,.24,.06,.24,.07,.22,.06,.22,.06,.21,.07,.2,.06,.19,.07,.19,.06,.17,.06,.16,.07,.15,.06,.14,.06,.13,.07,.12,.06,.12,.06,.1,.07,.09,.06,.07,.06,.05,.07,.05,.06,.02,.06,.02h.13l.06-.02,.07-.03,.06-.05,.07-.05,.06-.06,.06-.06,.07-.06,.06-.07,.06-.07,.07-.07,.06-.07,.06-.07,.07-.06,.06-.06,.06-.05,.07-.06,.06-.05,.06-.05,.07-.03,.06-.03h.26l.06,.02,.06,.04,.07,.06,.06,.08,.06,.1,.07,.11,.06,.12,.06,.15,.07,.17,.06,.19,.06,.21,.07,.23,.06,.24,.06,.26,.07,.27,.06,.3,.06,.31,.07,.33,.06,.35,.06,.36,.07,.37,.06,.38,.07,.39,.06,.39,.06,.4,.07,.41,.06,.42,.06,.42,.07,.4,.06,.41,.06,.41,.07,.41,.06,.41,.06,.4,.07,.39,.06,.39,.06,.37,.07,.36,.06,.36,.06,.35,.07,.35,.06,.34,.07,.31,.06,.3,.06,.29,.07,.25,.06,.24,.06,.23,.07,.21,.06,.18,.06,.15,.07,.12,.06,.11,.06,.08,.07,.07,.06,.05,.06,.03h.13l.06-.06,.07-.06,.06-.08,.07-.09,.06-.11,.06-.12,.07-.15,.06-.15,.06-.17,.07-.19,.06-.18,.06-.19,.07-.2,.06-.2,.06-.22,.07-.22,.06-.22,.06-.22,.07-.21,.06-.2,.06-.2,.07-.2,.06-.2,.07-.18,.06-.17,.06-.15,.07-.14,.06-.13,.06-.11,.07-.09,.06-.08,.06-.06,.07-.03h.12l.07,.05,.06,.06,.06,.08,.07,.11,.06,.13,.06,.17,.07,.2,.06,.22,.06,.24,.07,.26,.06,.29,.07,.31,.06,.34,.06,.37,.07,.38,.06,.41,.06,.42,.07,.45,.06,.46,.06,.49,.07,.51,.06,.53,.06,.55,.07,.55,.06,.56,.06,.57,.07,.58,.06,.6,.06,.62,.07,.61,.06,.61,.07,.62,.06,.61,.06,.62,.07,.62,.06,.61,.06,.61,.07,.6,.06,.59,.06,.57,.07,.55,.06,.55,.06,.53,.07,.52,.06,.51,.06,.47,.07,.45,.06,.43,.06,.42,.07,.4,.06,.38,.07,.35,.06,.33,.06,.3,.07,.28,.06,.25,.06,.22,.07,.2,.06,.17,.06,.15,.07,.11,.06,.08,.06,.05,.07,.02h.06l.06-.03,.07-.05,.06-.09,.06-.12,.07-.14,.06-.17,.06-.18,.07-.2,.06-.23,.07-.24,.06-.27,.06-.28,.07-.3,.06-.32,.06-.32,.07-.33,.06-.35,.06-.36,.07-.38,.06-.38,.06-.38,.07-.39,.06-.38,.06-.39,.07-.38,.06-.39,.06-.38,.07-.38,.06-.37,.07-.35,.06-.34,.06-.32,.07-.32,.06-.3,.06-.29,.07-.28,.06-.25,.06-.23,.07-.21,.06-.2,.06-.17,.07-.16,.06-.14,.06-.1,.07-.07,.06-.04,.06-.02h.07l.06,.02,.07,.05,.06,.09,.06,.11,.07,.15,.06,.17,.06,.19,.07,.22,.06,.25,.06,.27,.07,.3,.06,.33,.06,.35,.07,.38,.06,.41,.06,.42,.07,.45,.06,.46,.06,.49,.07,.51,.06,.53,.06,.54,.07,.56,.06,.57,.07,.58,.06,.61,.06,.62,.07,.63,.06,.64,.06,.65,.07,.65,.06,.66,.06,.67,.07,.68,.06,.68,.06,.68,.07,.68,.06,.68,.06,.67,.07,.67,.06,.66,.06,.68,.07,.66,.06,.65,.07,.65,.06,.62,.06,.62,.07,.61,.06,.61,.06,.59,.07,.58,.06,.56,.06,.54,.07,.53,.06,.51,.06,.5,.07,.49,.06,.47,.06,.45,.07,.43,.06,.4,.06,.38,.07,.36,.06,.34,.07,.32,.06,.3,.06,.27,.07,.24,.06,.23,.06,.2,.07,.19,.06,.16,.06,.14,.07,.1,.06,.08,.06,.05,.07,.03h.12l.07-.04,.06-.06,.06-.09,.07-.12,.06-.14,.06-.16,.07-.17,.06-.19,.07-.21,.06-.25,.06-.26,.07-.28,.06-.29,.06-.31,.07-.33,.06-.34,.06-.35,.07-.38,.06-.39,.06-.41,.07-.41,.06-.42,.06-.43,.07-.45,.06-.45,.06-.47,.07-.48,.06-.48,.07-.48,.06-.47,.06-.49,.07-.49,.06-.49,.06-.49,.07-.49,.06-.49,.06-.47,.07-.47,.06-.46,.06-.46,.07-.45,.06-.45,.06-.43,.07-.42,.06-.4,.06-.39,.07-.39,.06-.36,.07-.37,.06-.34,.06-.32,.07-.3,.06-.29,.06-.27,.07-.25,.06-.24,.06-.22,.07-.19,.06-.17,.06-.14,.07-.12,.06-.1,.06-.08,.07-.06,.06-.03h.06l.07,.04,.06,.05,.06,.08,.07,.1,.06,.12,.07,.14,.06,.17,.06,.19,.07,.22,.06,.23,.06,.25,.07,.27,.06,.29,.06,.31,.07,.32,.06,.34,.06,.37,.07,.38,.06,.38,.06,.4,.07,.42,.06,.44,.06,.46,.07,.46,.06,.48,.07,.49,.06,.49,.06,.51,.07,.53,.06,.54,.06,.54,.07,.56,.06,.56,.06,.56,.07,.56,.06,.56,.06,.56,.07,.57,.06,.57,.06,.56,.07,.57,.06,.56,.06,.55,.07,.57,.06,.56,.07,.57,.06,.56,.06,.55,.07,.55,.06,.54,.06,.54,.07,.54,.06,.54,.06,.53,.07,.52,.06,.51,.06,.5,.07,.5,.06,.48,.06,.49,.07,.47,.06,.46,.06,.45,.07,.44,.06,.43,.06,.41,.07,.41,.06,.41,.07,.39,.06,.38,.06,.37,.07,.35,.06,.35,.06,.35,.07,.34,.06,.33,.06,.33,.07,.3,.06,.3,.06,.28,.07,.28,.06,.28,.06,.26,.07,.26,.06,.25,.06,.24,.07,.22,.06,.21,.07,.21,.06,.21,.06,.19,.07,.19,.06,.17,.06,.16,.07,.16,.06,.15,.06,.13,.07,.13,.06,.12,.06,.12,.07,.09,.06,.08,.06,.08,.07,.08,.06,.06,.06,.05,.07,.05,.06,.04,.07,.02h.25l.06-.03,.07-.02,.06-.04,.06-.04,.07-.05,.06-.06,.06-.06,.07-.08,.06-.08,.06-.1,.07-.1,.06-.11,.06-.12,.07-.12,.06-.13,.06-.14,.07-.15,.06-.16,.07-.17,.06-.18,.06-.19,.07-.19,.06-.21,.06-.21,.07-.22,.06-.23,.06-.24,.07-.24,.06-.25,.06-.26,.07-.27,.06-.27,.06-.28,.07-.28,.06-.3,.06-.29,.07-.3,.06-.3,.07-.32,.06-.33,.06-.34,.07-.35,.06-.34,.06-.35,.07-.36,.06-.36,.06-.36,.07-.38,.06-.37,.06-.37,.07-.36,.06-.36,.06-.36,.07-.36,.06-.36,.06-.37,.07-.36,.06-.35,.07-.35,.06-.35,.06-.35,.07-.35,.06-.36,.06-.34,.07-.35,.06-.33,.06-.32,.07-.33,.06-.31,.06-.32,.07-.3,.06-.3,.06-.28,.07-.26,.06-.26,.06-.25,.07-.25,.06-.23,.06-.22,.07-.2,.06-.18,.07-.17,.06-.16,.06-.16,.07-.14,.06-.13,.06-.12,.07-.11,.06-.09,.06-.07,.07-.07,.06-.06,.06-.05,.07-.03,.06-.02h.06l.07,.02,.06,.03,.06,.03,.07,.05,.06,.06,.07,.07,.06,.1,.06,.11,.07,.12,.06,.14,.06,.14,.07,.16,.06,.17,.06,.17,.07,.2,.06,.21,.06,.21,.07,.22,.06,.23,.06,.24,.07,.24,.06,.26,.06,.28,.07,.27,.06,.28,.07,.29,.06,.29,.06,.3,.07,.32,.06,.32,.06,.33,.07,.34,.06,.34,.06,.35,.07,.34,.06,.35,.06,.36,.07,.36,.06,.35,.06,.36,.07,.35,.06,.34,.06,.35,.07,.35,.06,.36,.06,.35,.07,.35,.06,.34,.07,.34,.06,.34,.06,.34,.07,.34,.06,.35,.06,.34,.07,.33,.06,.33,.06,.33,.07,.33,.06,.33,.06,.33,.07,.31,.06,.31,.06,.31,.07,.29,.06,.29,.06,.29,.07,.28,.06,.28,.07,.27,.06,.26,.06,.26,.07,.25,.06,.26,.06,.24,.07,.26,.06,.24,.06,.23,.07,.22,.06,.21,.06,.21,.07,.2,.06,.21,.06,.2,.07,.19,.06,.18,.06,.18,.07,.17,.06,.17,.07,.17,.06,.16,.06,.16,.07,.16,.06,.14,.06,.15,.07,.13,.06,.13,.06,.14,.07,.13,.06,.12,.06,.11,.07,.11,.06,.1,.06,.1,.07,.1,.06,.1,.06,.09,.07,.08,.06,.08,.06,.08,.07,.08,.06,.08,.07,.09,.06,.08"/></g><line class="cls-9" x1="35.3" y1="392.74" x2="35.3" y2="284.65"/><text class="cls-21" transform="translate(25.92 390.7)"><tspan x="0" y="0">0</tspan></text><text class="cls-21" transform="translate(17.02 357.95)"><tspan x="0" y="0">100</tspan></text><text class="cls-21" transform="translate(17.02 325.19)"><tspan x="0" y="0">200</tspan></text><text class="cls-21" transform="translate(17.02 292.43)"><tspan x="0" y="0">300</tspan></text><path class="cls-6" d="M32.56,387.83h2.74m-2.74-32.76h2.74m-2.74-32.75h2.74m-2.74-32.76h2.74"/><line class="cls-9" x1="35.3" y1="392.74" x2="167.3" y2="392.74"/><path class="cls-6" d="M69.87,395.48v-2.74m47.62,2.74v-2.74m47.62,2.74v-2.74"/><text class="cls-21" transform="translate(62.09 403.42)"><tspan x="0" y="0">17.5</tspan></text><text class="cls-21" transform="translate(109.7 403.42)"><tspan x="0" y="0">20.0</tspan></text><text class="cls-21" transform="translate(157.33 403.42)"><tspan x="0" y="0">22.5</tspan></text><text class="cls-21" transform="translate(57.52 413.66)"><tspan x="0" y="0">Retention V</tspan></text><text class="cls-21" transform="translate(101.26 413.66)"><tspan x="0" y="0">olume (mL)</tspan></text><text class="cls-21" transform="translate(12.52 342.69) rotate(-90)"><tspan x="0" y="0">RI</tspan></text><g class="cls-20"><rect class="cls-15" x="178.26" y="278.63" width="52.84" height="120.12"/></g><line class="cls-3" x1="185.47" y1="298.23" x2="199.29" y2="298.23"/><line class="cls-8" x1="185.47" y1="315.51" x2="199.29" y2="315.51"/><line class="cls-10" x1="185.47" y1="332.79" x2="199.29" y2="332.79"/><line class="cls-5" x1="185.47" y1="350.07" x2="199.29" y2="350.07"/><line class="cls-4" x1="185.47" y1="367.35" x2="199.29" y2="367.35"/><line class="cls-7" x1="185.47" y1="384.63" x2="199.29" y2="384.63"/><text class="cls-21" transform="translate(206.5 301.12)"><tspan x="0" y="0">PPS</tspan></text><text class="cls-21" transform="translate(206.5 318.39)"><tspan x="0" y="0">0.5hr</tspan></text><text class="cls-21" transform="translate(206.5 335.67)"><tspan x="0" y="0">1hr</tspan></text><text class="cls-21" transform="translate(206.5 352.95)"><tspan x="0" y="0">1.5hr</tspan></text><text class="cls-21" transform="translate(206.5 370.23)"><tspan x="0" y="0">2.5hr</tspan></text><text class="cls-21" transform="translate(206.5 387.52)"><tspan x="0" y="0">5hr</tspan></text></g></svg>